<?xml version="1.0" encoding="UTF-8"?><svg id="Camada_1" xmlns="http://www.w3.org/2000/svg" viewBox="0 0 512 512"><rect width="512" height="512" rx="91.32" ry="91.32" fill="#b11f24"/><path d="M433.54,301.83c-27.72-28.78-103.39-17.05-121.51-14.92-26.65-25.58-44.76-56.49-51.16-67.15,9.59-28.78,15.99-57.56,17.05-88.47,0-26.65-10.66-55.42-40.5-55.42-10.66,0-20.25,6.39-25.58,14.92-12.79,22.39-7.46,67.15,12.79,112.98-11.72,33.04-22.38,65.02-52.23,121.51-30.91,12.79-95.93,42.63-101.26,74.61-2.13,9.59,1.07,19.19,8.53,26.65,7.46,6.4,17.05,9.59,26.65,9.59,39.44,0,77.81-54.36,104.46-100.19,22.38-7.46,57.56-18.12,92.73-24.51,41.57,36.24,77.81,41.57,96.99,41.57,25.58,0,35.17-10.66,38.37-20.25,5.33-10.66,2.13-22.38-5.33-30.91h0ZM406.89,319.95c-1.07,7.46-10.66,14.92-27.71,10.66-20.25-5.33-38.37-14.92-54.36-27.71,13.86-2.13,44.76-5.33,67.15-1.07,8.53,2.13,17.05,7.46,14.92,18.12h0ZM228.89,100.38c2.13-3.2,5.33-5.33,8.53-5.33,9.59,0,11.72,11.72,11.72,21.32-1.07,22.39-5.33,44.77-12.79,66.08-15.99-42.64-12.79-72.48-7.46-82.07ZM226.76,307.16c8.53-17.05,20.25-46.9,24.51-59.69,9.59,15.99,25.58,35.17,34.11,43.7,0,1.07-33.04,7.46-58.62,15.99ZM163.87,349.8c-24.51,40.5-50.1,66.08-63.95,66.08-2.13,0-4.26-1.07-6.4-2.13-3.2-2.13-4.26-5.33-3.2-9.59,3.2-14.92,30.91-35.17,73.55-54.36h0Z" fill="#fff"/></svg>