<?xml version="1.0" encoding="UTF-8"?>
<svg id="a" data-name="Camada 1" xmlns="http://www.w3.org/2000/svg" viewBox="0 0 512 512">
  <rect width="512" height="512" rx="64" ry="64" fill="#0b121e"/>
  <path d="M282.79,214.57c-12.21,40.92-22.48,80.36-34.69,118.97-6.93,21.78-14.52,42.57-24.09,55.77-10.56,14.85-30.36,29.04-54.11,29.04-16.83,0-33.33-7.92-33.33-25.41,0-10.89,11.22-21.12,20.13-21.12,3.84-.15,7.42,1.9,9.24,5.28,8.25,14.85,16.17,23.43,19.8,23.43s6.6-4.95,12.54-26.4l43.31-159.53-31.16-.03c-2.31-6.93.98-15.23,4.94-16.88h31.02c5.94-19.14,12.94-38.7,22.84-56.19,14.85-26.73,38.61-47.85,71.27-47.85,24.75,0,34.98,11.88,34.98,27.06-.33,16.17-14.52,24.42-21.12,24.42-5.28,0-7.92-3.96-9.57-9.57-5.61-21.12-12.87-27.39-17.16-27.39s-10.89,7.92-18.15,24.42c-9.57,20.79-16.01,43.43-21.95,65.21l37.74-.05c2.31,4.62.43,14.18-5.18,16.82h-37.3Z" fill="#fff"/>
</svg>