<?xml version="1.0" encoding="UTF-8"?>
<svg id="a" data-name="Camada 1" xmlns="http://www.w3.org/2000/svg" viewBox="0 0 512 512">
  <rect width="512" height="512" rx="64" ry="64" fill="#1e1c57"/>
  <g>
    <path d="M225,361.9c-2.67-8.33-5.54-16.89-8.61-25.67-3.07-8.78-6.13-17.53-9.17-26.23h-93.65c-3.03,8.75-6.07,17.51-9.1,26.3-3.04,8.79-5.88,17.33-8.5,25.6h-56.05c9.02-25.83,17.58-49.71,25.68-71.62,8.1-21.91,16.02-42.56,23.77-61.94,7.75-19.38,15.39-37.77,22.91-55.19,7.52-17.41,15.33-34.43,23.43-51.04h51.17c7.88,16.61,15.64,33.62,23.29,51.04,7.64,17.42,15.35,35.81,23.12,55.19,7.76,19.38,15.7,40.02,23.81,61.94,8.11,21.92,16.68,45.79,25.72,71.62h-57.81ZM160.16,176.44c-1.21,3.48-2.97,8.22-5.29,14.21-2.32,6-4.96,12.92-7.92,20.78s-6.28,16.51-9.94,25.95c-3.66,9.45-7.38,19.35-11.16,29.71h68.57c-3.67-10.4-7.22-20.33-10.66-29.81-3.44-9.47-6.71-18.14-9.8-26-3.1-7.86-5.81-14.78-8.15-20.77-2.33-5.98-4.22-10.68-5.65-14.08Z" fill="#9392c7"/>
    <path d="M289.04,272.28c0-16.14,2.48-30.28,7.44-42.39,4.96-12.11,11.47-22.2,19.55-30.28,8.07-8.07,17.35-14.19,27.85-18.34,10.49-4.15,21.28-6.23,32.35-6.23,25.83,0,46.25,7.9,61.24,23.7,14.99,15.8,22.49,39.04,22.49,69.72,0,3-.12,6.29-.35,9.86-.23,3.58-.47,6.75-.69,9.51h-116.95c1.15,10.61,6.11,19.03,14.88,25.26,8.76,6.23,20.53,9.34,35.29,9.34,9.46,0,18.74-.86,27.85-2.59,9.11-1.73,16.55-3.86,22.32-6.4l6.92,41.87c-2.77,1.38-6.46,2.77-11.07,4.15-4.62,1.38-9.75,2.59-15.4,3.63-5.65,1.04-11.71,1.9-18.17,2.59-6.46.69-12.92,1.04-19.38,1.04-16.38,0-30.62-2.42-42.73-7.27-12.11-4.84-22.14-11.47-30.1-19.9-7.96-8.42-13.84-18.39-17.65-29.93-3.81-11.53-5.71-23.99-5.71-37.37ZM410.15,252.56c-.23-4.38-.98-8.65-2.25-12.8-1.27-4.15-3.23-7.84-5.88-11.07-2.65-3.23-6-5.88-10.03-7.96-4.04-2.08-9.06-3.11-15.05-3.11s-10.73.98-14.88,2.94c-4.15,1.96-7.61,4.56-10.38,7.79-2.77,3.23-4.9,6.98-6.4,11.25-1.5,4.27-2.59,8.6-3.29,12.98h68.16Z" fill="#9392c7"/>
  </g>
</svg>