<?xml version="1.0" encoding="UTF-8"?>
<svg id="a" data-name="Camada 1" xmlns="http://www.w3.org/2000/svg" viewBox="0 0 512 512">
  <rect width="512" height="512" rx="64" ry="64" fill="#2f1110"/>
  <g>
    <path d="M282.42,228.34c-7.76-19.38-15.47-37.77-23.12-55.19-7.65-17.41-15.41-34.43-23.29-51.04h-51.17c-8.1,16.61-15.91,33.62-23.43,51.04-7.52,17.42-15.15,35.81-22.91,55.19-7.75,19.38-15.67,40.02-23.77,61.94-8.1,21.92-16.66,45.79-25.68,71.62h56.05c2.62-8.27,5.46-16.81,8.5-25.6,3.04-8.79,6.08-17.55,9.1-26.3h93.65c3.04,8.7,6.1,17.45,9.17,26.23,3.07,8.78,5.94,17.34,8.61,25.67h57.81c-9.04-25.83-17.61-49.71-25.72-71.62-8.11-21.91-16.05-42.56-23.81-61.94ZM174.99,267.1c3.78-10.36,7.5-20.27,11.16-29.71,3.66-9.44,6.97-18.09,9.94-25.95,2.96-7.86,5.6-14.78,7.92-20.78,2.32-5.99,4.08-10.73,5.29-14.21,1.43,3.41,3.32,8.1,5.66,14.08,2.33,5.99,5.05,12.91,8.15,20.77,3.09,7.86,6.36,16.53,9.8,26,3.44,9.47,6.99,19.41,10.66,29.81h-68.57Z" fill="#f7991c"/>
    <path d="M354.61,149.63c6.11,5.42,13.32,8.13,21.62,8.13s15.51-2.71,21.63-8.13c6.11-5.42,9.17-12.86,9.17-22.32s-3.06-16.9-9.17-22.32c-6.12-5.42-13.32-8.13-21.63-8.13s-15.52,2.71-21.62,8.13c-6.12,5.42-9.17,12.86-9.17,22.32s3.05,16.9,9.17,22.32Z" fill="#f7991c"/>
    <rect x="350.63" y="179.9" width="51.55" height="182" fill="#f7991c"/>
  </g>
</svg>