<?xml version="1.0" encoding="UTF-8"?><svg id="Camada_1" xmlns="http://www.w3.org/2000/svg" viewBox="0 0 512 512"><path d="M460.8,397.76c-7.68,17.73-16.76,34.06-27.29,49.06-14.35,20.46-26.1,34.62-35.15,42.48-14.04,12.91-29.07,19.52-45.18,19.89-11.56,0-25.5-3.29-41.73-9.96-16.28-6.64-31.24-9.93-44.93-9.93s-29.74,3.29-46.2,9.93c-16.49,6.67-29.77,10.15-39.92,10.5-15.44.66-30.83-6.14-46.2-20.43-9.81-8.55-22.07-23.22-36.77-43.99-15.76-22.18-28.73-47.9-38.88-77.23-10.87-31.67-16.33-62.35-16.33-92.04,0-34.01,7.35-63.35,22.07-87.94,11.57-19.75,26.96-35.32,46.23-46.76,19.26-11.44,40.08-17.26,62.5-17.64,12.27,0,28.35,3.79,48.34,11.25,19.93,7.48,32.73,11.28,38.34,11.28,4.2,0,18.41-4.44,42.51-13.28,22.79-8.2,42.03-11.6,57.79-10.26,42.7,3.45,74.78,20.28,96.12,50.61-38.19,23.14-57.08,55.55-56.71,97.13.34,32.39,12.09,59.33,35.18,80.73,10.46,9.93,22.15,17.61,35.15,23.06-2.82,8.18-5.8,16.01-8.96,23.53h0ZM362.86,12.38c0,25.38-9.27,49.08-27.76,71.02-22.31,26.08-49.29,41.15-78.55,38.77-.37-3.05-.59-6.25-.59-9.62,0-24.37,10.61-50.45,29.45-71.77,9.41-10.8,21.37-19.77,35.87-26.93,14.47-7.05,28.17-10.96,41.04-11.62.38,3.39.53,6.79.53,10.15h0Z" fill="#b3b3b3"/></svg>