<?xml version="1.0" encoding="UTF-8"?>
<svg id="a" data-name="Camada 1" xmlns="http://www.w3.org/2000/svg" viewBox="0 0 512 512">
  <rect width="512" height="512" rx="64" ry="64" fill="#1e1c57"/>
  <g>
    <path d="M222.24,361.9c-2.67-8.33-5.54-16.89-8.61-25.67-3.07-8.78-6.13-17.53-9.17-26.23h-93.65c-3.03,8.75-6.07,17.51-9.1,26.3-3.04,8.79-5.88,17.33-8.5,25.6h-56.05c9.02-25.83,17.58-49.71,25.68-71.62,8.1-21.91,16.02-42.56,23.77-61.94,7.75-19.38,15.39-37.77,22.91-55.19,7.52-17.41,15.33-34.43,23.43-51.04h51.17c7.88,16.61,15.64,33.62,23.29,51.04,7.64,17.42,15.35,35.81,23.12,55.19,7.76,19.38,15.7,40.02,23.81,61.94,8.11,21.92,16.68,45.79,25.72,71.62h-57.81ZM157.39,176.44c-1.21,3.48-2.97,8.22-5.29,14.21-2.32,6-4.96,12.92-7.92,20.78s-6.28,16.51-9.94,25.95c-3.66,9.45-7.38,19.35-11.16,29.71h68.57c-3.67-10.4-7.22-20.33-10.66-29.81-3.44-9.47-6.71-18.14-9.8-26-3.1-7.86-5.81-14.78-8.15-20.77-2.33-5.98-4.22-10.68-5.65-14.08Z" fill="#9392c7"/>
    <path d="M454.09,355.67c-8.77,2.54-20.07,4.9-33.91,7.09-13.84,2.19-28.37,3.29-43.6,3.29s-28.32-2.08-38.58-6.23c-10.27-4.15-18.4-9.97-24.39-17.47-6-7.49-10.27-16.43-12.8-26.82-2.54-10.38-3.81-21.8-3.81-34.25v-101.38h51.55v95.15c0,16.61,2.19,28.6,6.57,35.98,4.38,7.39,12.57,11.07,24.57,11.07,3.69,0,7.61-.17,11.76-.52,4.15-.35,7.84-.75,11.07-1.21v-140.48h51.56v175.77Z" fill="#9392c7"/>
  </g>
</svg>