<?xml version="1.0" encoding="UTF-8"?><svg id="Camada_1" xmlns="http://www.w3.org/2000/svg" viewBox="0 0 512 512"><path d="M456.72,371.88c3.23-5.6,5.24-11.91,5.24-17.57v-196.63c0-5.66-2.01-11.97-5.24-17.57l-200.72,115.88,200.72,115.88Z" fill="#822c98"/><path d="M273.84,483.52l170.28-98.31c4.91-2.83,9.36-7.72,12.6-13.32l-200.72-115.88-200.72,115.88c3.23,5.6,7.69,10.49,12.6,13.32l170.28,98.31c9.81,5.66,25.86,5.66,35.67,0Z" fill="#68217a"/><path d="M456.72,140.12c-3.23-5.6-7.69-10.49-12.6-13.32L273.84,28.48c-9.81-5.66-25.86-5.66-35.67,0L67.88,126.79c-9.81,5.66-17.84,19.57-17.84,30.89v196.63c0,5.66,2.01,11.97,5.24,17.57l200.72-115.88,200.72-115.88Z" fill="#953dac"/><path d="M256,393.3c-75.71,0-137.3-61.59-137.3-137.3s61.59-137.3,137.3-137.3c48.85,0,94.42,26.29,118.9,68.61l-59.42,34.39c-12.26-21.18-35.05-34.34-59.48-34.34-37.86,0-68.65,30.8-68.65,68.65s30.8,68.65,68.65,68.65c24.43,0,47.23-13.16,59.49-34.35l59.42,34.38c-24.49,42.32-70.05,68.61-118.91,68.61Z" fill="#fff"/><path d="M439.31,244.36v-13.42h-11.05l3.49-21.01h-13.42l-3.49,21.01h-23.09l3.5-21.01h-13.42l-3.49,21.01h-15.22v13.42h12.99l-3.8,22.85h-13.32v13.42h11.09l-3.57,21.44h13.42l3.57-21.44h23.09l-3.57,21.44h13.42l3.57-21.44h15.19v-13.42h-12.95l3.8-22.85h13.29ZM408.8,267.21h-23.09l3.8-22.85h23.09l-3.8,22.85Z" fill="#fff"/></svg>