<?xml version="1.0" encoding="UTF-8"?>
<svg id="a" data-name="Camada 1" xmlns="http://www.w3.org/2000/svg" viewBox="0 0 512 512">
  <g id="b" data-name="Balloon">
    <polygon points="284.6 512 225.24 512 217.82 467.48 292.02 467.48 284.6 512" fill="#61a706"/>
    <path d="M364.82,22.88c56.71,37.86,71.51,93.23,65.13,143.21-13.26,132.35-150.3,283.05-139.38,273.16,30.52-25.91,133.28-148.01,152.58-262.37,19.32-114.38-78.34-154-78.34-154Z" fill="#979797"/>
    <path d="M82.06,166.1c-6.37-49.96,8.47-105.36,65.13-143.21,0,0-97.65,39.62-78.34,153.99,19.32,114.37,122.12,236.46,152.58,262.37,10.98,9.88-126.07-140.81-139.37-273.16Z" fill="#979797"/>
    <path d="M194.33,186.78c4.05,69.7,22.1,161.97,52.98,258.43h15.26c30.83-96.46,48.88-188.68,52.93-258.37,5.88-100.64-15.02-165.27-48.45-183.15-3.1-1.67-6.57-3.09-12.12-3.18-5.52.1-9.04,1.59-12.12,3.25-33.45,17.84-54.32,82.4-48.48,183.01Z" fill="#979797"/>
    <path d="M239.19,444.04s-90.43-149.49-96.97-279.82C135.66,33.87,226.57,0,226.57,0c-8.47.35-27.32,5.75-45.13,14.11-17.81,8.37-80.71,46.45-81.94,140.54,1.6,89.18,84.03,240.74,139.69,289.39Z" fill="#979797"/>
    <path d="M369.37,164.22c-6.57,130.33-96.97,279.82-96.97,279.82,55.66-48.65,138.1-200.19,139.69-289.38-1.22-94.1-64.13-132.18-81.94-140.54C312.36,5.76,293.5.36,285,0c0,0,90.87,33.86,84.36,164.21Z" fill="#979797"/>
  </g>
</svg>