<?xml version="1.0" encoding="UTF-8"?><svg id="Camada_1" xmlns="http://www.w3.org/2000/svg" viewBox="0 0 512 512"><path id="bg" d="M0,0h430.08c45.24,0,81.92,36.68,81.92,81.92v348.16c0,45.24-36.68,81.92-81.92,81.92H81.92c-45.24,0-81.92-36.68-81.92-81.92V0Z" fill="#639"/><path id="fg" d="M183.35,471.04c-32.89-.03-53.18-18.55-52.79-52.63v-86.22c0-17.27,5.06-30.41,15.18-39.4,18.17-17.51,60.33-18.57,78.13.27,10.97,9.67,15.1,29.43,14.12,47.87h-37.74c.29-7.24-.1-18.22-4.36-22.35-5.53-7.49-20.15-6.61-24.02,1.19-2.38,4.23-3.56,10.49-3.56,18.78v74.84c0,15.69,5.45,23.63,16.36,23.8,5.1,0,8.98-1.85,11.61-5.56,3.68-4.39,4.25-14.12,3.96-21.16h37.74c2.58,35.88-18.6,61.01-54.64,60.56h0ZM303.18,471.04c-36.44.5-52.74-25.43-51.73-60.56h35.63c-.99,15.32,4.28,29.27,16.89,28.3,5.63,0,9.59-1.76,11.88-5.29,4.35-6.45,5.17-25.06-1.05-32.27-4.35-6.94-19.98-13.06-28.24-17.19-11.79-5.64-20.28-12.34-25.47-20.1-11.71-17.22-10.62-55.03,5.81-70.35,15.96-18.9,57.66-19.77,73.64-.39,9.86,9.99,14.16,29.64,13.33,47.73h-34.31c.29-7.43-.41-19.43-3.3-23.8-2.02-3.7-5.85-5.56-11.48-5.56-10.03,0-15.04,6-15.04,17.98.11,12.73,5.07,17.95,16.63,23.27,14.97,5.82,34.01,15.75,40.91,27.77,20.58,36.63,6.46,92.58-44.08,90.44h0ZM418.25,471.04c-36.44.5-52.74-25.43-51.73-60.56h35.63c-.99,15.32,4.28,29.27,16.89,28.3,5.63,0,9.59-1.76,11.88-5.29,4.35-6.45,5.17-25.06-1.05-32.27-4.35-6.94-19.98-13.06-28.24-17.19-11.79-5.64-20.28-12.34-25.47-20.1-11.71-17.22-10.62-55.03,5.81-70.35,15.96-18.9,57.66-19.77,73.64-.39,9.86,9.99,14.16,29.64,13.33,47.73h-34.31c.29-7.43-.41-19.43-3.3-23.8-2.02-3.7-5.85-5.56-11.48-5.56-10.03,0-15.04,6-15.04,17.98.11,12.73,5.07,17.95,16.63,23.27,14.97,5.82,34.01,15.75,40.91,27.77,20.58,36.63,6.46,92.58-44.08,90.44h0Z" fill="#fff"/></svg>