<?xml version="1.0" encoding="UTF-8"?><svg id="Camada_1" xmlns="http://www.w3.org/2000/svg" viewBox="0 0 512 512"><path d="M481.59,114.89c-4.88-2.39-6.98,2.17-9.84,4.48-.98.75-1.8,1.72-2.63,2.61-7.14,7.62-15.47,12.63-26.36,12.03-15.92-.9-29.52,4.11-41.53,16.29-2.55-15.02-11.04-23.98-23.96-29.73-6.76-2.99-13.59-5.98-18.33-12.48-3.3-4.63-4.21-9.79-5.86-14.87-1.05-3.06-2.1-6.2-5.63-6.73-3.83-.6-5.33,2.61-6.83,5.31-6.01,10.98-8.34,23.09-8.11,35.34.53,27.57,12.17,49.53,35.3,65.15,2.63,1.79,3.3,3.59,2.48,6.2-1.58,5.38-3.46,10.61-5.11,15.99-1.05,3.44-2.63,4.18-6.31,2.69-12.69-5.3-23.66-13.15-33.35-22.64-16.45-15.91-31.32-33.47-49.87-47.22-4.29-3.18-8.7-6.19-13.22-9.04-18.93-18.38,2.48-33.47,7.44-35.26,5.18-1.87,1.8-8.29-14.95-8.22-16.75.07-32.07,5.68-51.6,13.15-2.86,1.12-5.86,1.94-8.94,2.61-17.72-3.36-36.12-4.11-55.35-1.94-36.2,4.03-65.11,21.14-86.37,50.36-25.53,35.12-31.54,75.01-24.18,116.63,7.74,43.85,30.12,80.16,64.51,108.56,35.67,29.43,76.76,43.85,123.62,41.09,28.46-1.64,60.16-5.45,95.91-35.71,9.01,4.48,18.47,6.28,34.17,7.62,12.09,1.12,23.73-.6,32.75-2.46,14.12-2.99,13.14-16.06,8.04-18.45-41.38-19.27-32.3-11.43-40.56-17.78,21.03-24.88,52.72-50.73,65.11-134.48.98-6.65.15-10.83,0-16.21-.07-3.28.67-4.56,4.43-4.93,10.36-1.2,20.43-4.03,29.67-9.12,26.81-14.64,37.63-38.7,40.18-67.54.37-4.41-.07-8.97-4.73-11.28h0s0,0,0,0ZM247.95,374.43c-40.11-31.52-59.56-41.91-67.59-41.46-7.51.45-6.16,9.04-4.51,14.64,1.73,5.53,3.98,9.34,7.14,14.19,2.18,3.21,3.68,7.99-2.18,11.58-12.92,7.99-35.37-2.69-36.43-3.21-26.14-15.39-47.99-35.71-63.39-63.5-14.87-26.75-23.51-55.43-24.93-86.07-.38-7.39,1.8-10.01,9.16-11.36,9.69-1.79,19.68-2.17,29.37-.75,40.93,5.98,75.78,24.28,104.99,53.27,16.67,16.51,29.29,36.24,42.29,55.51,13.82,20.47,28.69,39.97,47.62,55.96,6.68,5.6,12.02,9.86,17.12,13-15.4,1.72-41.08,2.09-58.66-11.81h0ZM267.35,249.35c.64-2.58,2.95-4.46,5.76-4.46.69,0,1.38.13,2.03.37.83.3,1.58.75,2.18,1.42,1.05,1.05,1.65,2.54,1.65,4.11,0,3.29-2.63,5.9-5.93,5.9-2.88.03-5.35-2.07-5.78-4.92-.13-.8-.1-1.63.09-2.42h0ZM324.94,282.19c-3.18,1.22-6.34,2.17-9.4,2.29-5.71.3-11.94-2.02-15.32-4.86-5.26-4.41-9.01-6.87-10.59-14.57-.68-3.29-.3-8.37.3-11.28,1.35-6.28-.15-10.31-4.58-13.97-3.6-2.99-8.19-3.81-13.22-3.81-1.88,0-3.6-.82-4.88-1.49-2.1-1.04-3.83-3.66-2.18-6.87.53-1.04,3.08-3.59,3.68-4.03,6.83-3.89,14.72-2.62,22,.3,6.76,2.76,11.87,7.84,19.23,15.02,7.51,8.67,8.86,11.06,13.14,17.56,3.38,5.08,6.46,10.31,8.56,16.29,1.07,3.12.09,5.78-2.86,7.66-1.2.76-2.57,1.27-3.89,1.78h0Z" fill="#4d6bfe"/></svg>