<?xml version="1.0" encoding="UTF-8"?><svg id="Camada_1" xmlns="http://www.w3.org/2000/svg" viewBox="0 0 512 512"><rect width="512" height="512" rx="64" ry="64" fill="#243218"/><path d="M231.26,148.07c-12-9.92-26.36-17.18-43.08-21.8-16.73-4.61-35.35-6.92-55.88-6.92-9.69,0-21.28.41-34.77,1.21-13.49.81-26.47,2.37-38.93,4.67v233.55c12.46,2.54,25.14,4.21,38.06,5.02,12.92.81,24.22,1.21,33.91,1.21,21.22,0,40.36-2.54,57.44-7.61,17.07-5.07,31.54-12.68,43.42-22.84,11.88-10.15,21.05-22.95,27.51-38.41,6.46-15.45,9.69-33.56,9.69-54.32s-3.23-40.25-9.69-55.71c-6.46-15.45-15.69-28.14-27.68-38.06ZM193.38,298.24c-13.04,13.61-33.04,20.41-60.03,20.41-4.62,0-8.6-.05-11.94-.17-3.35-.11-6.29-.29-8.82-.52v-151.55c3.46-.46,7.15-.75,11.07-.87,3.92-.11,7.73-.17,11.42-.17,26.99,0,46.71,6.46,59.17,19.38,12.46,12.92,18.68,31.95,18.68,57.09s-6.52,42.79-19.55,56.4Z" fill="#a0cc41"/><path d="M454.78,225.23c-2.54-10.15-6.81-18.91-12.8-26.3-6-7.38-14.13-13.09-24.39-17.13-10.27-4.03-23.13-6.06-38.58-6.06s-29.76,1.1-43.6,3.29c-13.84,2.19-25.15,4.56-33.91,7.09v175.77h51.55v-140.48c3.23-.46,6.92-.86,11.07-1.21,4.15-.35,8.07-.52,11.76-.52,11.99,0,20.18,3.46,24.57,10.38,4.38,6.92,6.57,18.68,6.57,35.29v96.54h51.55v-102.76c0-12.46-1.27-23.75-3.8-33.91Z" fill="#a0cc41"/></svg>