<?xml version="1.0" encoding="UTF-8"?><svg id="Camada_1" xmlns="http://www.w3.org/2000/svg" viewBox="0 0 512 512"><path d="M503.67,219.98c-12.55-8.45-45.54-12.06-69.51-5.6-1.29-23.88-13.61-44.01-36.14-61.58l-8.34-5.6-5.56,8.4c-10.93,16.58-15.53,38.68-13.9,58.78,1.29,12.38,5.59,26.29,13.9,36.38-31.21,18.1-59.98,13.99-187.38,13.99H.04c-.57,28.77,4.05,84.11,39.24,129.15,3.89,4.98,8.15,9.79,12.78,14.43,28.61,28.65,71.84,49.66,136.48,49.72,98.62.09,183.1-53.22,234.5-182.1,16.91.27,61.55,3.03,83.4-39.19.53-.71,5.56-11.19,5.56-11.19l-8.33-5.6h0ZM128.41,193.67h-55.31v55.31h55.31v-55.31ZM199.87,193.67h-55.31v55.31h55.31v-55.31ZM271.32,193.67h-55.31v55.31h55.31v-55.31ZM342.78,193.67h-55.31v55.31h55.31v-55.31ZM56.95,193.67H1.64v55.31h55.31s0-55.31,0-55.31ZM128.41,123.81h-55.31v55.31h55.31v-55.31ZM199.87,123.81h-55.31v55.31h55.31v-55.31ZM271.32,123.81h-55.31v55.31h55.31v-55.31ZM271.32,53.94h-55.31v55.31h55.31v-55.31Z" fill="#1d63ed"/></svg>