<?xml version="1.0" encoding="UTF-8"?>
<svg id="a" data-name="Camada 1" xmlns="http://www.w3.org/2000/svg" viewBox="0 0 512 512">
  <rect width="512" height="512" rx="64" ry="64" fill="#243218"/>
  <g>
    <path d="M286.62,241.84c0,20.76-3.23,38.87-9.69,54.32-6.46,15.46-15.63,28.26-27.51,38.41-11.88,10.15-26.36,17.77-43.42,22.84-17.07,5.07-36.22,7.61-57.44,7.61-9.69,0-20.99-.41-33.91-1.21-12.92-.81-25.6-2.48-38.06-5.02V125.23c12.46-2.3,25.43-3.86,38.93-4.67,13.49-.81,25.08-1.21,34.77-1.21,20.53,0,39.15,2.31,55.88,6.92,16.72,4.62,31.08,11.88,43.08,21.8,11.99,9.92,21.22,22.61,27.68,38.06,6.46,15.46,9.69,34.03,9.69,55.71ZM130.58,317.96c2.54.23,5.48.41,8.82.52,3.34.12,7.32.17,11.94.17,26.99,0,47-6.8,60.03-20.41,13.03-13.61,19.55-32.41,19.55-56.4s-6.23-44.17-18.68-57.09c-12.46-12.92-32.18-19.38-59.17-19.38-3.69,0-7.5.06-11.42.17-3.92.12-7.61.41-11.07.87v151.55Z" fill="#a0cc41"/>
    <path d="M371.74,324.88c9.46,0,16.14-.92,20.07-2.77,3.92-1.84,5.88-5.42,5.88-10.73,0-4.15-2.54-7.79-7.61-10.9-5.08-3.11-12.8-6.63-23.18-10.55-8.08-3-15.4-6.11-21.97-9.34-6.57-3.23-12.17-7.09-16.78-11.59-4.62-4.5-8.19-9.86-10.73-16.09-2.54-6.23-3.81-13.72-3.81-22.49,0-17.07,6.34-30.56,19.03-40.48,12.68-9.92,30.1-14.88,52.25-14.88,11.07,0,21.68.98,31.83,2.94,10.15,1.96,18.22,4.1,24.22,6.4l-9,40.14c-6-2.08-12.52-3.92-19.55-5.54-7.04-1.61-14.94-2.42-23.7-2.42-16.15,0-24.22,4.5-24.22,13.49,0,2.08.35,3.92,1.04,5.54.69,1.62,2.08,3.17,4.15,4.67,2.08,1.5,4.9,3.12,8.48,4.87,3.57,1.75,8.13,3.67,13.67,5.75,11.3,4.19,20.64,8.32,28.03,12.39,7.38,4.07,13.2,8.47,17.47,13.18,4.27,4.72,7.27,9.96,9,15.71,1.73,5.75,2.59,12.43,2.59,20.02,0,17.95-6.75,31.54-20.24,40.74-13.49,9.2-32.58,13.81-57.26,13.81-16.15,0-29.58-1.38-40.31-4.15-10.73-2.77-18.17-5.07-22.32-6.92l8.65-41.87c8.76,3.46,17.76,6.17,26.99,8.13,9.22,1.96,18.34,2.94,27.33,2.94Z" fill="#a0cc41"/>
  </g>
</svg>