<?xml version="1.0" encoding="UTF-8"?>
<svg id="a" data-name="Camada 1" xmlns="http://www.w3.org/2000/svg" viewBox="0 0 512 512">
  <rect width="512" height="512" rx="64" ry="64" fill="#460436"/>
  <g>
    <path d="M234.89,244.15c0,20.76-3.23,38.87-9.69,54.32-6.46,15.46-15.63,28.26-27.51,38.41-11.88,10.15-26.36,17.77-43.42,22.84-17.07,5.07-36.22,7.61-57.44,7.61-9.69,0-20.99-.41-33.91-1.21-12.92-.81-25.6-2.48-38.06-5.02V127.55c12.46-2.3,25.43-3.86,38.93-4.67,13.49-.81,25.08-1.21,34.77-1.21,20.53,0,39.15,2.31,55.88,6.92,16.72,4.62,31.08,11.88,43.08,21.8,11.99,9.92,21.22,22.61,27.68,38.06,6.46,15.46,9.69,34.03,9.69,55.71ZM78.84,320.27c2.54.23,5.48.41,8.82.52,3.34.12,7.32.17,11.94.17,26.99,0,47-6.8,60.03-20.41,13.03-13.61,19.55-32.41,19.55-56.4s-6.23-44.17-18.68-57.09c-12.46-12.92-32.18-19.38-59.17-19.38-3.69,0-7.5.06-11.42.17-3.92.12-7.61.41-11.07.87v151.55Z" fill="#c76dac"/>
    <path d="M378.66,259.72c-4.62,17.53-9.52,34.95-14.71,52.25-5.19,17.3-10.67,34.72-16.44,52.25h-40.14c-4.16-9.69-8.68-21.22-13.53-34.6-4.86-13.38-9.89-27.97-15.09-43.77-5.21-15.8-10.53-32.52-15.96-50.17-5.44-17.65-10.7-35.47-15.79-53.46h54.32c1.85,8.3,3.88,17.36,6.09,27.16,2.21,9.81,4.53,19.9,6.96,30.28,2.44,10.38,4.99,20.82,7.66,31.31,2.67,10.5,5.39,20.59,8.18,30.28,3-10.15,5.94-20.53,8.82-31.14,2.88-10.61,5.65-21.05,8.3-31.31,2.65-10.26,5.19-20.18,7.61-29.76,2.42-9.57,4.55-18.51,6.4-26.82h37.37c1.84,8.3,3.92,17.25,6.23,26.82,2.3,9.58,4.73,19.5,7.27,29.76,2.54,10.27,5.19,20.71,7.96,31.31,2.77,10.61,5.65,20.99,8.65,31.14,2.79-9.69,5.57-19.78,8.35-30.28,2.78-10.49,5.39-20.93,7.83-31.31,2.43-10.38,4.75-20.47,6.96-30.28,2.21-9.8,4.23-18.86,6.09-27.16h53.63c-5.09,17.99-10.35,35.81-15.79,53.46-5.44,17.65-10.76,34.37-15.96,50.17-5.21,15.8-10.29,30.39-15.27,43.77-4.97,13.38-9.54,24.91-13.71,34.6h-40.14c-5.77-17.53-11.42-34.95-16.95-52.25s-10.61-34.71-15.22-52.25Z" fill="#c76dac"/>
  </g>
</svg>