<?xml version="1.0" encoding="UTF-8"?>
<svg id="a" data-name="Camada 1" xmlns="http://www.w3.org/2000/svg" viewBox="0 0 512 512">
  <path id="b" data-name="path0 fill" d="M170.67,512c47.1,0,85.33-38.23,85.33-85.33v-85.33h-85.33c-47.1,0-85.33,38.23-85.33,85.33s38.23,85.33,85.33,85.33Z" fill="#0acf83"/>
  <path id="c" data-name="path1 fill" d="M85.33,256c0-47.1,38.23-85.33,85.33-85.33h85.33v170.67h-85.33c-47.1,0-85.33-38.23-85.33-85.33Z" fill="#a259ff"/>
  <path id="d" data-name="path1 fill" d="M85.33,85.33C85.33,38.23,123.56,0,170.67,0h85.33v170.67h-85.33c-47.1,0-85.33-38.23-85.33-85.33Z" fill="#f24e1e"/>
  <path id="e" data-name="path2 fill" d="M256,0h85.33c47.1,0,85.33,38.23,85.33,85.33s-38.23,85.33-85.33,85.33h-85.33V0Z" fill="#ff7262"/>
  <path id="f" data-name="path3 fill" d="M426.67,256c0,47.1-38.23,85.33-85.33,85.33s-85.33-38.23-85.33-85.33,38.23-85.33,85.33-85.33,85.33,38.23,85.33,85.33Z" fill="#1abcfe"/>
</svg>