<?xml version="1.0" encoding="UTF-8"?><svg id="Camada_1" xmlns="http://www.w3.org/2000/svg" viewBox="0 0 512 512"><path d="M494.14,233.96L278.03,17.88c-12.43-12.45-32.62-12.45-45.07,0l-44.87,44.88,56.92,56.92c13.23-4.47,28.4-1.47,38.94,9.07,10.6,10.61,13.57,25.91,8.99,39.18l54.86,54.86c13.27-4.57,28.59-1.62,39.18,9,14.82,14.81,14.82,38.81,0,53.63-14.82,14.82-38.82,14.82-53.65,0-11.14-11.15-13.9-27.52-8.25-41.25l-51.16-51.16v134.63c3.61,1.79,7.02,4.17,10.03,7.17,14.81,14.81,14.81,38.81,0,53.64-14.82,14.81-38.83,14.81-53.63,0-14.81-14.83-14.81-38.83,0-53.64,3.66-3.65,7.9-6.42,12.42-8.28v-135.89c-4.52-1.85-8.75-4.59-12.42-8.28-11.22-11.21-13.92-27.68-8.17-41.46l-56.11-56.12L17.87,232.96c-12.45,12.46-12.45,32.64,0,45.09l216.09,216.08c12.44,12.45,32.62,12.45,45.08,0l215.09-215.06c12.45-12.45,12.45-32.64,0-45.09" fill="#f05133"/></svg>