<?xml version="1.0" encoding="UTF-8"?><svg id="Camada_1" xmlns="http://www.w3.org/2000/svg" viewBox="0 0 512 512"><path d="M256,11.18C117.32,11.18,4.99,123.51,4.99,262.19c0,111.07,71.85,204.89,171.63,238.14,12.55,2.2,17.26-5.33,17.26-11.92,0-5.96-.31-25.73-.31-46.75-63.07,11.61-79.38-15.37-84.4-29.49-2.82-7.22-15.06-29.49-25.73-35.45-8.79-4.71-21.34-16.32-.31-16.63,19.77-.31,33.89,18.2,38.59,25.73,22.59,37.96,58.67,27.3,73.11,20.71,2.2-16.32,8.79-27.3,16-33.57-55.85-6.28-114.21-27.92-114.21-123.94,0-27.3,9.73-49.89,25.73-67.46-2.51-6.28-11.3-32,2.51-66.52,0,0,21.02-6.59,69.03,25.73,20.08-5.65,41.42-8.47,62.75-8.47s42.67,2.82,62.75,8.47c48.01-32.63,69.03-25.73,69.03-25.73,13.81,34.51,5.02,60.24,2.51,66.52,16,17.57,25.73,39.85,25.73,67.46,0,96.32-58.67,117.66-114.52,123.94,9.1,7.84,16.94,22.9,16.94,46.44,0,33.57-.31,60.56-.31,69.03,0,6.59,4.71,14.43,17.26,11.92,99.15-33.26,171-127.39,171-238.14,0-138.68-112.33-251.01-251.01-251.01Z" fill-rule="evenodd"/></svg>