<?xml version="1.0" encoding="UTF-8"?><svg id="Camada_1" xmlns="http://www.w3.org/2000/svg" viewBox="0 0 512 512"><path d="M142.19,211.89H58.58c-.94,0-2.11.47-2.58,1.17l-4.92,6.32c-.47.7-.23,1.17.7,1.17l84.78.23c.7,0,1.87-.7,2.34-1.41l3.98-6.09c.47-.7.23-1.41-.7-1.41Z" fill="#00acd7"/><path d="M130.01,233.44H23.22c-.94,0-2.11.47-2.58,1.17l-4.92,6.32c-.47.7-.23,1.17.7,1.17l110.78-.23c.94,0,1.87-.47,2.11-1.41l1.87-5.62c.23-.7-.23-1.41-1.17-1.41Z" fill="#00acd7"/><path d="M124.86,254.99h-46.84c-.94,0-1.87.7-2.34,1.41l-3.28,5.86c-.47.7-.23,1.41.7,1.41l51.06.23c.7,0,1.64-.7,1.64-1.64l.47-5.62c0-.94-.47-1.64-1.41-1.64Z" fill="#00acd7"/><path d="M495.6,234.38c-3.04-22.48-14.52-39.58-33.02-52.23-20.38-13.82-42.86-16.16-66.75-11.94-27.87,4.92-48.48,16.63-65.58,39.11-7.33,9.59-12.81,19.72-16.2,30.45h-75.38c-3.51,0-5.15,2.34-5.85,3.75-3.28,6.09-8.9,18.27-11.94,25.53-1.64,3.98-.47,7.03,4.45,7.03h45.2c-2.34,3.28-4.22,6.09-6.32,8.67-10.54,11.94-23.89,17.57-39.81,15.46-18.5-2.58-31.38-18.03-31.62-36.77-.23-18.97,7.96-34.19,23.89-44.5,13.35-8.67,27.64-10.77,42.39-3.51,4.92,2.34,7.49,4.92,11.01,8.9,3.04,3.51,3.28,3.28,6.79,2.34,14.52-3.75,24.59-6.56,39.35-10.3,2.81-.7,3.75-1.87,2.34-3.98-5.85-13.58-14.75-24.83-27.17-33.02-18.97-12.88-40.05-15.46-62.06-11.48-26.93,4.92-48.95,18.74-65.58,40.52-15.46,20.14-22.95,43.09-19.91,68.62,2.58,21.55,12.41,38.88,29.74,51.99,18.74,14.05,40.05,18.5,63,15.46,27.87-3.75,49.89-17.57,66.75-39.81,3.83-5.05,7.11-10.35,9.85-15.89,3.95,14.27,11.87,26.53,23.41,36.5,16.39,14.05,35.83,20.14,57.15,20.61,6.09-.7,12.41-.94,18.74-2.11,21.78-4.45,40.75-14.29,56.21-29.98,21.78-22.01,30.91-47.78,26.93-79.39ZM419.72,295.97c-12.41,6.32-25.29,7.03-38.17,1.41-16.86-7.49-25.76-26-21.55-44.26,5.15-22.01,19.2-35.83,40.99-40.75,22.25-5.15,43.56,7.96,47.78,31.15.47,2.34.47,4.68.7,7.73-1.17,20.14-11.24,35.13-29.74,44.73Z" fill="#00acd7"/></svg>