<?xml version="1.0" encoding="UTF-8"?>
<svg id="a" data-name="Camada 1" xmlns="http://www.w3.org/2000/svg" viewBox="0 0 512 512">
  <rect width="512" height="512" rx="64" ry="64" fill="#450f22"/>
  <g>
    <path d="M146.84,122.12h53.98v239.78h-53.98V122.12Z" fill="#ed3868"/>
    <path d="M235.41,270.9c0-13.15,2.13-25.54,6.4-37.2,4.27-11.65,10.43-21.8,18.51-30.45,8.07-8.65,17.87-15.51,29.41-20.59,11.53-5.07,24.68-7.61,39.44-7.61,9.69,0,18.57.86,26.64,2.59,8.07,1.73,15.92,4.21,23.53,7.44l-10.73,41.17c-4.84-1.84-10.15-3.46-15.92-4.84-5.77-1.38-12.23-2.08-19.38-2.08-15.22,0-26.59,4.73-34.08,14.19-7.5,9.46-11.25,21.92-11.25,37.37,0,16.38,3.51,29.06,10.55,38.06,7.03,9,19.32,13.49,36.85,13.49,6.23,0,12.92-.57,20.07-1.73,7.15-1.15,13.72-3,19.72-5.54l7.27,42.21c-6,2.54-13.49,4.73-22.49,6.57-9,1.84-18.92,2.77-29.76,2.77-16.61,0-30.91-2.48-42.91-7.44-12-4.96-21.86-11.71-29.58-20.24-7.73-8.53-13.38-18.62-16.95-30.28-3.58-11.65-5.36-24.27-5.36-37.89Z" fill="#ed3868"/>
  </g>
</svg>