<?xml version="1.0" encoding="UTF-8"?><svg id="Camada_1" xmlns="http://www.w3.org/2000/svg" viewBox="0 0 512 512"><rect width="512" height="512" rx="64" ry="64" fill="#450f22"/><rect x="128.85" y="122.12" width="53.98" height="239.78" fill="#ed3868"/><path d="M335.06,101.7v82.35c-5.77-2.54-11.48-4.5-17.13-5.88-5.66-1.38-12.06-2.08-19.2-2.08-12.92,0-24.39,2.19-34.43,6.57-10.03,4.38-18.51,10.73-25.43,19.03-6.92,8.3-12.23,18.4-15.92,30.28-3.69,11.88-5.54,25.2-5.54,39.96s2.13,27.63,6.4,39.27c4.27,11.65,10.43,21.57,18.51,29.76,8.07,8.19,17.99,14.48,29.76,18.86,11.76,4.38,25.14,6.57,40.14,6.57,6.23,0,12.74-.29,19.55-.87,6.8-.58,13.49-1.33,20.07-2.25,6.57-.92,12.86-2.02,18.86-3.29,6-1.26,11.3-2.59,15.92-3.98V93.4l-51.56,8.3ZM335.06,320.73c-2.54.46-5.77.87-9.69,1.21-3.92.35-8.19.52-12.8.52-14.07,0-24.69-4.84-31.83-14.53-7.15-9.69-10.73-22.49-10.73-38.41,0-33.22,12.22-49.83,36.68-49.83,5.3,0,10.55.69,15.74,2.08,5.19,1.38,9.4,3.11,12.63,5.19v93.77Z" fill="#ed3868"/></svg>