<?xml version="1.0" encoding="UTF-8"?><svg id="Camada_1" xmlns="http://www.w3.org/2000/svg" viewBox="0 0 512 512"><rect width="512" height="512" fill="#f7df1e"/><path d="M343.93,400c10.31,16.84,23.73,29.22,47.46,29.22,19.94,0,32.67-9.96,32.67-23.73,0-16.5-13.08-22.34-35.03-31.94l-12.03-5.16c-34.72-14.79-57.78-33.32-57.78-72.49,0-36.08,27.49-63.55,70.46-63.55,30.59,0,52.58,10.65,68.43,38.52l-37.47,24.06c-8.25-14.79-17.15-20.62-30.96-20.62s-23.02,8.94-23.02,20.62c0,14.43,8.94,20.28,29.58,29.22l12.03,5.15c40.88,17.53,63.96,35.4,63.96,75.58,0,43.32-34.03,67.05-79.73,67.05s-73.55-21.29-87.67-49.2l39.1-22.71ZM173.97,404.17c7.56,13.41,14.43,24.75,30.96,24.75s25.78-6.18,25.78-30.23v-163.6h48.11v164.25c0,49.82-29.21,72.49-71.84,72.49-38.52,0-60.83-19.94-72.18-43.95l39.16-23.71Z"/></svg>