<svg id="Camada_1" xmlns="http://www.w3.org/2000/svg" viewBox="0 0 512 512">
<path d="M504.4,115.83c.18.68.28,1.39.28,2.09v109.9c0,2.87-1.54,5.52-4.03,6.95l-92.24,53.11v105.26c0,2.86-1.52,5.51-4.01,6.95l-192.54,110.84c-.44.25-.92.41-1.4.58-.18.06-.35.17-.54.22-1.35.35-2.76.35-4.11,0-.22-.06-.42-.18-.63-.26-.44-.16-.9-.3-1.32-.54L11.35,400.09c-2.49-1.43-4.02-4.08-4.03-6.95V63.44c0-.72.1-1.42.28-2.1.06-.23.2-.44.28-.67.15-.42.29-.85.51-1.24.15-.26.37-.47.55-.71.23-.32.44-.65.71-.93.23-.23.53-.4.79-.6.29-.24.55-.5.88-.69h.01L107.6,1.07c2.48-1.43,5.53-1.43,8.01,0l96.26,55.42h.02c.32.2.59.45.88.68.26.2.55.38.78.6.28.29.48.62.72.94.17.24.4.45.54.71.23.4.36.82.52,1.24.08.23.22.44.28.68.18.68.28,1.39.28,2.09v205.93l80.21-46.19v-105.27c0-.7.1-1.41.28-2.08.07-.24.2-.45.28-.68.16-.42.3-.85.52-1.24.15-.26.37-.47.54-.71.24-.32.44-.65.72-.93.23-.23.52-.4.78-.6.3-.24.56-.5.88-.69h.01l96.27-55.42c2.48-1.43,5.53-1.43,8.01,0l96.26,55.42c.34.2.6.45.9.68.25.2.54.38.77.6.28.29.48.62.72.94.18.24.4.45.54.71.23.39.36.82.52,1.24.09.23.22.44.28.68ZM488.63,223.18v-91.39l-33.68,19.39-46.54,26.79v91.39l80.23-46.19h-.01ZM392.37,388.5v-91.45l-45.77,26.14-130.71,74.6v92.31s176.49-101.61,176.49-101.61ZM23.37,77.31v311.19l176.47,101.6v-92.29l-92.19-52.18-.03-.02-.04-.02c-.31-.18-.57-.44-.86-.66-.25-.2-.54-.36-.76-.58l-.02-.03c-.26-.25-.44-.56-.66-.84-.2-.27-.44-.5-.6-.78v-.03c-.19-.3-.3-.66-.43-1-.13-.3-.3-.58-.38-.9h0c-.1-.39-.12-.79-.16-1.18-.04-.3-.12-.6-.12-.9V123.5l-46.53-26.8-33.68-19.37h0ZM111.61,17.28L31.41,63.44l80.18,46.17,80.19-46.18L111.59,17.28h.02ZM153.32,305.39l46.53-26.78V77.31l-33.68,19.39-46.54,26.79v201.29s33.7-19.4,33.7-19.4ZM400.4,71.76l-80.19,46.17,80.19,46.17,80.18-46.18s-80.18-46.16-80.18-46.16ZM392.37,177.98l-46.54-26.79-33.68-19.39v91.39l46.53,26.78,33.69,19.4s0-91.39,0-91.39ZM207.85,383.93l117.62-67.15,58.8-33.55-80.13-46.14-92.26,53.12-84.09,48.41s80.06,45.31,80.06,45.31Z" fill="#ff2d20" fill-rule="evenodd"/>
</svg>