<?xml version="1.0" encoding="UTF-8"?>
<svg id="a" data-name="Camada 1" xmlns="http://www.w3.org/2000/svg" viewBox="0 0 512 512">
  <path d="M138.66,403.72c-3.13-4.67-5.87-10.97-8.1-18.5-40.17-45.3-9.14-111.96,21.55-157.22,2.94-4.84,6.15-9.51,9.63-13.99,23.42-29.1,29.47-49.34,31.28-76.73.22-5.1-.21-11.85-.69-19.61-2.48-39.6-6.6-105.4,64.06-111.23,88.33-7.29,81.13,73.82,80.48,121.37-.03,1.97-.06,3.88-.07,5.73-.24,28.66,14.72,48.29,30.33,68.78,5.7,7.48,11.49,15.08,16.66,23.27.15.24.31.49.46.73,27.29,39.35,54.23,98.09,16.73,153.79-5.27,19.02-13.25,36.47-23.9,50.67-38.24,50.33-72.24,45.22-98.78,41.23-8.01-1.2-15.34-2.3-21.9-1.75-10.9.66-19.64,2.43-27.2,3.95-29.18,5.89-40.59,8.19-90.54-70.48Z" fill="#0a0428"/>
  <path d="M306.35,50.84c-.82,23.31-25.55,43.56-55.19,45.43-29.64,1.87-52.9-15.82-52.08-39.13.82-23.31,25.55-43.56,55.18-45.43,29.64-1.7,52.89,15.82,52.08,39.13Z" fill="#58595b"/>
  <path d="M252.65,107.5c.24,12.67,6.04,23.48,14.19,28.37-26.6-2.38-59.55,7.34-59.55,25.74-.41,31.13-17.74,69.86-30.21,97.73-2.45,5.49-4.72,10.56-6.64,15.07-7.72,19.12-12.35,39.56-12.9,59.62-20.45-28.19-5.59-64.34,2.42-80.04,10.66-20.65,10.45-23.23,6.31-18.39-15.87,26.99-45.76,81.2-8.33,113.77,1.19,14.54,4.73,28.63,11.02,41.59,50.11,101.07,143.94,59.55,174.89,7.15,4.12-7.45,7.45-14.66,10.09-21.63,1.55.98,3.21,1.73,4.97,2.23,15.56,4.59,38.81-12.93,44.38-23.82,6.72-14.46-.16-24.33-23.09-36.07-1.17-.58-2.33-1.12-3.46-1.63,8.79-37.02-15.44-75.52-32.74-91.86-3.23-.8-3.68,1.03,1.33,6.03,10.9,10.44,34.6,47.68,21.78,82.34-2.11-.57-4.15-.97-6.08-1.19-3.94-23.65-14.44-42.04-21.79-54.9-1.66-2.91-3.16-5.54-4.39-7.88-2.47-4.72-5.42-9.61-8.56-14.8-12.08-19.98-26.81-44.36-26.81-80.49-1.85-7.95-9.35-13.25-19.33-16.17,11.59-2.34,20.29-15.88,19.99-32.14-.33-17.53-11.3-31.48-24.4-31.14-13.1.34-23.58,14.97-23.09,32.5ZM263.45,111.41c-.16,9.7,4.42,17.53,10.48,17.53s10.97-7.82,11.14-17.35c.16-9.7-4.42-17.52-10.48-17.52s-10.97,7.83-11.14,17.35Z" fill="#d0d2d3" fill-rule="evenodd"/>
  <path d="M219.9,134.72c9.5-.51,16.37-13.27,15.56-28.41-.82-15.14-9.17-26.88-18.67-26.37-9.5.51-16.37,13.27-15.56,28.41.82,15.14,9.17,26.88,18.67,26.37ZM225.63,111.58c.82,8-2.13,14.8-6.38,15.49-4.26.51-8.35-5.45-9.17-13.44-.82-8,2.13-14.8,6.39-15.48,4.26-.51,8.35,5.44,9.17,13.44Z" fill="#d0d2d3" fill-rule="evenodd"/>
  <path d="M265.91,105.96c-.49,5.44,1.97,9.87,5.4,10.21,3.44.34,6.72-3.91,7.21-9.19.49-5.45-1.96-9.87-5.4-10.21-3.44-.34-6.71,3.91-7.21,9.19Z" fill="#808184"/>
  <path d="M222.03,107.33c.49,4.43-1.31,8.34-3.93,8.68-2.62.34-5.08-3.06-5.57-7.66-.49-4.42,1.31-8.34,3.93-8.68,2.62-.34,5.08,3.23,5.57,7.66Z" fill="#808184"/>
  <path d="M322.73,284.79c0,29.94-27.68,68.74-75.16,68.4-48.97.34-69.76-38.46-69.76-68.4s32.42-54.28,72.38-54.28c40.12.17,72.54,24.33,72.54,54.28Z" fill="#f1f1f2"/>
  <path d="M296.87,190.7c-.49,30.97-19.98,38.28-44.54,38.28s-42.41-4.59-44.54-38.28c0-21.1,19.98-33.35,44.54-33.35,24.57-.17,44.54,12.08,44.54,33.35Z" fill="#f1f1f2"/>
  <path d="M148.35,238.34c16.05-25.35,49.94-64.31,6.39,5.45-35.37,57.51-13.1,94.43-1.64,104.64,33.08,30.63,31.77,51.22,5.73,35.05-55.84-34.54-44.21-92.73-10.48-145.13Z" fill="#58595b"/>
  <path d="M380.71,248.72c-13.92-29.77-58.13-105.32,2.13-17.53,54.86,79.46,16.38,134.76,9.5,140.2-6.88,5.45-29.97,16.5-23.25-2.72,6.88-19.23,40.94-55.64,11.63-119.95Z" fill="#58595b"/>
  <path d="M136.23,483.53c-36.68-20.25-89.9,3.91-70.58-50.87,3.93-12.42-5.73-31.14.49-43.22,7.37-14.8,23.25-11.57,32.75-21.44,9.33-10.21,15.23-27.9,32.75-25.18,17.36,2.72,28.98,24.84,41.1,52.06,9.01,19.4,40.78,46.79,38.65,68.57-2.62,33.35-39.14,39.64-75.16,20.08Z" fill="#ffdd15"/>
  <path d="M102.92,371.98c-8.92,9.76-25.3,7.42-31.88,20.18-4.22,8.2.39,20.8,1.01,29.77.77,11.09-8.43,26.81-3.74,36.28,5.26,10.64,29.02,9.26,39.46,10.79,25.78,3.77,68.39,37.13,91.7,10.5,22.79-26.03-21.02-58.97-31.76-82.11-6.99-15.7-17.44-45.8-36.91-48.86-13.72-2.13-19.97,14.79-27.88,23.44ZM132.46,337.09c24.24,3.8,36.37,35.22,45.31,55.31,13.58,29.14,60.1,60.46,29.95,94.9-27.38,31.28-70.62-2.32-101.5-6.83-15.42-2.26-39.75-.64-47.82-16.96-6.94-14.03,3.51-26.75,2.54-40.74-.83-11.92-5.54-24.72.26-36.04,7.94-15.9,23.27-12.05,33.69-22.78,11.07-12.16,17.7-29.95,37.57-26.87Z" fill="#f6921e" fill-rule="evenodd"/>
  <path d="M390.54,474.17c26.86-33.86,86.63-26.88,46.34-73.33-8.51-10.04-5.89-31.48-16.38-40.67-12.28-11.23-25.87-2.04-38.32-7.83-12.45-6.29-25.55-18.37-40.78-9.87-15.23,8.68-16.87,31.14-18.34,60.74-1.31,21.27-19.98,56.83-9.99,76.4,14.41,30.28,51.91,26.2,77.46-5.45Z" fill="#ffdd15"/>
  <path d="M401.25,348.43c6.89-.18,15.13.3,22.88,7.36,9.63,8.49,9.73,22.35,13.36,33.96,4.3,13.75,19.37,21.6,18.47,37.72-1.47,26.35-47.1,32.7-61.15,50.41-13.5,16.72-30.56,26.67-46.75,28.02-24.55,2.03-44.83-18.61-43.4-43.82,1.17-20.41,11.56-38.95,12.83-59.19.73-14.66,1.52-28.25,4.17-39.28,2.68-11.15,7.5-20.76,17.06-26.2,20.92-11.69,41.14,11.59,62.53,11.03ZM344.05,347.57c-5.67,3.24-9.27,9.2-11.58,18.84-2.34,9.75-3.11,22.25-3.86,37.19-1.25,20.29-11.67,38.81-12.83,59.17-1.04,18.15,12.9,33.12,31.38,31.59,12.54-1.04,27.01-8.96,39.06-23.88,10.76-13.56,57.61-26.15,58.59-43.67.64-11.44-14.41-22.17-17.95-33.46-2.76-8.84-2.91-22.53-9.99-28.74-4.52-4.13-9.28-4.75-15.36-4.59-17.62.46-41.12-21.55-57.47-12.44Z" fill="#f6921e" fill-rule="evenodd"/>
  <path d="M378.9,428.91c41.59-63.81,10.64-63.3.16-68.23-10.48-5.1-21.45-15.14-33.73-8.16-12.28,7.14-12.94,25.52-13.26,49.68-.49,17.36-14.41,46.45-6.06,62.61,10.15,18.89,34.71-8.51,52.89-35.9Z" fill="#fff100"/>
  <path d="M127.71,438.09c-62.23-41.86-33.08-56.15-23.75-62.79,11.3-8.51,11.46-24.84,25.38-23.31,13.92,1.53,22.11,19.4,31.44,41.52,6.88,15.82,30.79,36.92,28.98,55.12-2.29,21.44-35.21,7.32-62.06-10.55Z" fill="#fff100"/>
  <path d="M399.71,354.38c-4.91,8.85-24.89,22.8-38.15,19.06-13.59-3.57-19.81-23.48-17.03-38.45,2.46-17.01,17.03-17.86,35.37-9.36,19.48,9.19,25.54,17.02,19.81,28.75Z"/>
  <path d="M386.28,349.45c-3.11,6.13-16.21,15.82-25.38,13.27-9.17-2.55-13.75-16.33-12.28-26.71,1.31-11.74,11.13-12.42,23.58-6.63,13.43,6.47,17.69,11.91,14.08,20.08Z" fill="#58595b"/>
  <path d="M216.94,127.41c6.55-6.3,22.43-25.52,52.57-5.45,5.57,3.74,10.15,4.08,20.8,8.85,21.45,9.19,11.3,31.31-11.63,38.79-9.82,3.23-18.67,15.65-36.35,14.46-15.23-.85-19.16-11.23-28.5-16.85-16.54-9.7-18.99-22.8-9.99-29.77,9-6.98,12.44-9.53,13.1-10.04Z" fill="#ffdd15"/>
  <path d="M205.84,140.23c-3.43,2.65-4.52,6.18-3.38,10.08,2.33,8.01,19.09,19.03,25.51,24.42,3.65,3.06,7.82,5.49,14.57,5.87,14.45.97,22.48-10.14,35.13-14.31,8.33-2.72,25.94-13.11,20.11-25.02-4.98-10.16-21.75-10.79-30.09-16.39-14.34-9.55-24.78-9.49-32.22-6.8-8.15,2.94-22.26,16.44-29.64,22.15ZM233.28,111.51c9.68-3.49,22.25-2.99,38.04,7.53,10.37,6.97,26.16,6.3,32.42,19.07,7.97,16.27-11.35,30.64-24.06,34.8-13.61,4.48-21.22,15.71-37.56,14.62-8.47-.48-13.91-3.66-18.36-7.4-9.24-7.75-24.85-15.12-28.41-27.42-1.98-6.82.91-13.72,6.49-18.05,9.02-6.99,21.22-19.46,31.44-23.15Z" fill="#f6921e" fill-rule="evenodd"/>
  <path d="M292.87,145.15c.07,1.28-.87,2.37-2.1,2.44-17.33.98-29.51,20.76-49.08,20.76-10.95,0-19.62-5.29-25.82-10.37-1.25-1.02-12.27-9.52-12.27-11.69,0-1.28,1-2.32,2.23-2.32,2.3,0,9.25,7.54,11.84,9.66,5.84,4.79,14.51,10.08,24.03,10.08,19.38,0,31.27-19.76,48.84-20.76,1.23-.07,2.28.91,2.35,2.19Z" fill="#f6921e" fill-rule="evenodd"/>
  <path d="M227.11,125.71c3.27-3.06,13.59-11.4,27.18-2.89,2.95,1.7,5.89,3.57,10.15,6.12,8.68,5.27,4.42,12.93-6.06,17.69-4.75,2.04-12.61,6.47-18.5,6.12-6.55-.68-10.97-5.1-15.23-8-8.03-5.44-7.53-10.04-3.77-13.61,2.79-2.72,5.9-5.28,6.23-5.45Z" fill="#fff100"/>
</svg>