<?xml version="1.0" encoding="UTF-8"?>
<svg id="a" data-name="Camada 1" xmlns="http://www.w3.org/2000/svg" viewBox="0 0 512 512">
  <rect width="512" height="512" rx="64" ry="64" fill="#1e1c57"/>
  <g>
    <path d="M95.46,122.12c4.16,7.61,8.96,17.01,14.4,28.2,5.43,11.19,11.1,23.3,17,36.33,5.9,13.04,11.74,26.36,17.52,39.96,5.78,13.61,11.21,26.42,16.31,38.41,5.09-11.99,10.52-24.79,16.31-38.41,5.78-13.61,11.62-26.93,17.52-39.96,5.9-13.03,11.56-25.14,17-36.33,5.43-11.19,10.23-20.59,14.4-28.2h49.13c2.3,15.92,4.44,33.74,6.4,53.46,1.96,19.72,3.69,40.26,5.19,61.59,1.5,21.34,2.88,42.73,4.15,64.18,1.26,21.45,2.36,41.64,3.29,60.55h-52.59c-.69-23.3-1.62-48.67-2.77-76.12-1.16-27.45-2.89-55.13-5.19-83.04-4.17,9.69-8.8,20.41-13.88,32.18-5.09,11.76-10.13,23.53-15.1,35.29-4.97,11.76-9.77,23.01-14.4,33.74-4.63,10.73-8.56,19.9-11.8,27.51h-37.71c-3.24-7.61-7.17-16.78-11.8-27.51-4.63-10.73-9.43-21.97-14.41-33.74-4.97-11.76-10.01-23.53-15.09-35.29-5.09-11.76-9.72-22.49-13.88-32.18-2.31,27.91-4.04,55.59-5.19,83.04-1.16,27.45-2.08,52.83-2.77,76.12H24.87c.92-18.91,2.02-39.1,3.29-60.55,1.27-21.45,2.65-42.84,4.15-64.18,1.5-21.33,3.23-41.87,5.19-61.59,1.96-19.72,4.09-37.54,6.4-53.46h51.55Z" fill="#9392c7"/>
    <path d="M321.39,272.29c0-16.14,2.48-30.28,7.44-42.39,4.96-12.11,11.47-22.2,19.55-30.28,8.07-8.07,17.35-14.19,27.85-18.34,10.49-4.15,21.28-6.23,32.35-6.23,25.83,0,46.24,7.9,61.24,23.7,14.99,15.8,22.49,39.04,22.49,69.72,0,3-.12,6.29-.35,9.86-.23,3.58-.46,6.75-.69,9.51h-116.95c1.15,10.61,6.11,19.03,14.88,25.26,8.76,6.23,20.53,9.34,35.29,9.34,9.46,0,18.74-.86,27.85-2.59,9.11-1.73,16.55-3.86,22.32-6.4l6.92,41.87c-2.77,1.38-6.46,2.77-11.07,4.15-4.62,1.38-9.75,2.59-15.4,3.63-5.65,1.04-11.71,1.9-18.17,2.59-6.46.69-12.92,1.04-19.38,1.04-16.38,0-30.62-2.42-42.73-7.27-12.11-4.84-22.14-11.47-30.1-19.9-7.96-8.42-13.84-18.39-17.65-29.93-3.81-11.53-5.71-23.99-5.71-37.37ZM442.5,252.56c-.23-4.38-.98-8.65-2.25-12.8-1.27-4.15-3.23-7.84-5.88-11.07-2.66-3.23-6-5.88-10.04-7.96-4.04-2.08-9.05-3.11-15.05-3.11s-10.73.98-14.88,2.94c-4.15,1.96-7.61,4.56-10.38,7.79-2.77,3.23-4.9,6.98-6.4,11.25-1.5,4.27-2.59,8.6-3.29,12.98h68.16Z" fill="#9392c7"/>
  </g>
</svg>