<?xml version="1.0" encoding="UTF-8"?><svg id="Camada_1" xmlns="http://www.w3.org/2000/svg" viewBox="0 0 512 512"><rect width="512" height="512" fill="#015f8b"/><path d="M447.41,442.46c-21.44-18.67-48.41-35.27-48.41-40.8s9.68-6.22,9.68-6.22c0,0,22.13-6.22,35.96-7.61,13.83-1.38,15.21-8.99,5.53-19.36-9.68-10.37-46.33-41.49-97.51-62.24,0,0-62.93-142.46-109.96-178.42-47.03-35.96-67.08-46.33-80.22-48.41-13.14-2.07-35.96-7.61-35.96-7.61,0,0,10.37,5.53-3.46-1.38-13.83-6.92-62.93-36.65-78.84-17.29-15.91,19.36,8.65,48.76,18.67,60.17,24.9,28.35,15.91,55.33,48.41,98.89,0,0-35.23,92.78,13.14,135.93,13.46,12.01,26.74,4.66,31.81-6.61,3.53-7.84-1.92-15.77,6.88-27.97,0,0,13.87,37.65,65.73,72.23,0,0-60.86-78.15-69.16-110.65,0,0-17.29,14.52-19.36,55.33-2.07,40.8-48.41-49.1-15.91-108.58,0,0,6.92-10.37-4.15-22.13-11.06-11.76-19.36-62.93-46.33-95.44-26.97-32.5-35.27-62.24,26.28-26.28,61.55,35.96,42.88-1.38,97.51,37.34,54.63,38.73,79.53,67.08,134.86,192.95,0,0,4.15,13.14,32.5,20.06,28.35,6.92,65.01,38.04,65.01,38.04,0,0,8.3,7.61,0,7.61s-53.25,11.76-53.25,11.76c0,0-6.92,4.84-2.77,12.45,4.15,7.61,16.6,22.82,68.47,51.87,51.87,29.05,26.28,11.06,4.84-7.61Z" fill="#fafafa"/><path d="M129.29,120.88s8.99,21.44,13.14,23.51c4.15,2.07,10.37-6.92,4.84-17.29-5.53-10.37-17.98-6.22-17.98-6.22Z" fill="#fafafa"/></svg>