<?xml version="1.0" encoding="UTF-8"?><svg id="Camada_1" xmlns="http://www.w3.org/2000/svg" viewBox="0 0 512 512"><path id="path3474" d="M256,385.73c141.38,0,256-58.08,256-129.74s-114.62-129.74-256-129.74S0,184.35,0,256s114.62,129.74,256,129.74" fill="#777bb3"/><g id="path3486"><path d="M73.57,334.87c-.12,0-.23-.05-.3-.14-.08-.09-.11-.21-.08-.32l27.3-140.44c.04-.18.2-.32.38-.32h58.83c17.74,0,30.86,4.73,39.02,14.07,8.16,9.34,10.66,22.54,7.41,39.24-1.33,6.87-3.62,13.23-6.8,18.92-3.18,5.7-7.4,10.98-12.53,15.69-6.13,5.74-13.02,9.87-20.51,12.3-7.46,2.43-17.1,3.66-28.66,3.66h-25.88l-7.2,37.02c-.04.18-.2.32-.38.32h-30.59ZM116.2,274.58h18.13c12.19,0,21.38-2.32,27.32-6.89,5.93-4.56,9.99-12.32,12.08-23.04,1.99-10.26,1.09-17.58-2.67-21.76-3.83-4.24-11.34-6.31-22.95-6.31h-20.64l-11.27,58Z" fill="#fff"/><path d="M159.7,196.15c16.98,0,29.48,4.45,37.13,13.21,7.63,8.73,9.93,21.22,6.84,37.11-1.28,6.6-3.48,12.72-6.53,18.18-3.05,5.47-7.1,10.54-12.07,15.1-5.84,5.47-12.42,9.42-19.56,11.73-7.21,2.35-16.59,3.54-27.89,3.54h-27.94l-.79,4.05-6.47,33.29h-26.29l26.48-136.22h57.09M113.17,277.09h21.17c12.75,0,22.46-2.49,28.85-7.41,6.43-4.95,10.8-13.21,13.01-24.55,2.18-11.23,1.11-19.05-3.27-23.91-4.33-4.8-12.45-7.13-24.81-7.13h-22.7l-.79,4.05-10.3,53-1.16,5.95M159.7,191.15h-58.83c-1.38,0-2.57.98-2.84,2.34l-27.3,140.44c-.16.85.06,1.72.61,2.39.55.67,1.37,1.05,2.23,1.05h30.59c1.38,0,2.57-.98,2.84-2.34l6.8-35h23.82c11.82,0,21.72-1.27,29.43-3.79,7.84-2.55,15.05-6.87,21.43-12.84,5.33-4.89,9.71-10.38,13.02-16.31,3.31-5.92,5.69-12.54,7.07-19.67,3.4-17.49.71-31.4-7.98-41.36-8.65-9.9-22.41-14.92-40.9-14.92h0ZM119.23,272.09l10.3-53h18.58c10.71,0,17.81,1.84,21.1,5.48,3.21,3.56,3.91,10.16,2.08,19.61-1.97,10.11-5.72,17.36-11.15,21.54-5.49,4.23-14.17,6.37-25.8,6.37h-15.1Z" fill="#777bb3"/></g><g id="path3494"><path d="M278.72,297.53c-.12,0-.23-.05-.3-.14-.08-.09-.11-.21-.08-.32l12.07-62.14c1.34-6.91.87-11.66-1.42-14.12-2.3-2.48-7.33-3.73-14.94-3.73h-23.94l-15.57,80.14c-.04.18-.2.32-.38.32h-30.35c-.12,0-.23-.05-.3-.14-.08-.09-.1-.21-.08-.32l27.3-140.44c.04-.18.2-.32.38-.32h30.35c.12,0,.23.05.3.14.07.09.1.21.08.32l-7.17,36.87h26.56c17.27,0,28.88,2.95,35.47,9,6.53,6,8.53,15.83,5.93,29.21l-12.7,65.35c-.04.18-.2.32-.38.32h-30.83Z" fill="#fff"/><path d="M258.9,158.81l-6.1,31.38-1.16,5.95h29.6c16.39,0,27.75,2.81,33.78,8.34,5.85,5.38,7.59,14.43,5.17,26.89l-12.37,63.65h-26.54l11.59-59.63c1.52-7.84.86-13.17-2.04-16.3-2.83-3.05-8.32-4.53-16.77-4.53h-26l-.79,4.05-14.85,76.41h-26.05l26.48-136.22h26.06M261.45,153.81h-30.35c-1.38,0-2.57.98-2.84,2.34l-27.3,140.44c-.16.85.06,1.72.61,2.39.55.67,1.37,1.05,2.23,1.05h30.35c1.38,0,2.57-.98,2.84-2.34l15.18-78.12h21.87c9.04,0,12.09,1.84,13.11,2.93,1.66,1.79,1.95,6.03.8,11.94l-12.07,62.14c-.16.85.06,1.72.61,2.39.55.67,1.37,1.05,2.23,1.05h30.83c1.38,0,2.57-.98,2.84-2.34l12.7-65.35c2.78-14.29.52-24.89-6.69-31.53-7.08-6.5-19.24-9.66-37.16-9.66h-23.53l6.59-33.9c.16-.85-.06-1.72-.61-2.39-.55-.67-1.37-1.05-2.23-1.05h0Z" fill="#777bb3"/></g><g id="path3502"><path d="M312.36,334.87c-.12,0-.23-.05-.3-.14-.08-.09-.11-.21-.08-.33l27.3-140.44c.04-.18.2-.32.38-.32h58.83c17.74,0,30.86,4.73,39.02,14.07,8.16,9.34,10.65,22.54,7.41,39.23-1.34,6.87-3.62,13.23-6.8,18.92-3.18,5.7-7.4,10.98-12.53,15.69-6.13,5.74-13.02,9.87-20.51,12.3-7.46,2.43-17.1,3.66-28.66,3.66h-25.88l-7.19,37.02c-.04.18-.2.32-.38.32h-30.59ZM354.99,274.58h18.13c12.19,0,21.38-2.32,27.32-6.89,5.93-4.56,9.99-12.32,12.08-23.04,1.99-10.26,1.09-17.58-2.67-21.76-3.83-4.24-11.34-6.31-22.95-6.31h-20.64l-11.27,58Z" fill="#fff"/><path d="M398.48,196.15c16.98,0,29.48,4.45,37.14,13.21,7.63,8.73,9.93,21.22,6.84,37.11-1.29,6.61-3.48,12.72-6.53,18.18-3.05,5.47-7.1,10.54-12.07,15.1-5.84,5.47-12.42,9.42-19.56,11.73-7.21,2.35-16.59,3.54-27.89,3.54h-27.94l-.79,4.05-6.47,33.29h-26.3l26.48-136.22h57.09M351.95,277.09h21.17c12.75,0,22.46-2.49,28.85-7.41,6.43-4.95,10.8-13.2,13.01-24.55,2.18-11.23,1.11-19.05-3.27-23.91-4.33-4.8-12.45-7.13-24.81-7.13h-22.7l-.79,4.05-10.3,53-1.16,5.95M398.48,191.15h-58.83c-1.38,0-2.57.98-2.84,2.34l-27.3,140.44c-.16.85.06,1.72.61,2.39.55.67,1.37,1.05,2.23,1.05h30.59c1.38,0,2.57-.98,2.84-2.34l6.8-35h23.82c11.82,0,21.72-1.27,29.43-3.79,7.84-2.55,15.05-6.87,21.43-12.84,5.33-4.89,9.71-10.38,13.02-16.31,3.31-5.92,5.69-12.54,7.07-19.67,3.4-17.49.71-31.4-7.98-41.36-8.65-9.9-22.41-14.92-40.9-14.92h0ZM358.02,272.09l10.3-53h18.58c10.71,0,17.81,1.84,21.1,5.48,3.21,3.56,3.91,10.16,2.08,19.61-1.97,10.11-5.72,17.36-11.15,21.54-5.49,4.23-14.17,6.37-25.8,6.37h-15.1Z" fill="#777bb3"/></g></svg>