<?xml version="1.0" encoding="UTF-8"?><svg id="Camada_1" xmlns="http://www.w3.org/2000/svg" viewBox="0 0 512 512"><path id="path3474" d="M256,385.73c141.38,0,256-58.08,256-129.74s-114.62-129.74-256-129.74S0,184.35,0,256s114.62,129.74,256,129.74" fill="#777bb3"/><path id="path3486" d="M134.33,272.09c11.63,0,20.3-2.14,25.8-6.37,5.43-4.18,9.18-11.43,11.15-21.54,1.83-9.45,1.14-16.05-2.08-19.61-3.28-3.64-10.38-5.48-21.1-5.48h-18.58l-10.3,53h15.1ZM73.57,337.37c-.86,0-1.68-.39-2.23-1.05-.55-.67-.77-1.54-.61-2.39l27.3-140.44c.26-1.36,1.45-2.34,2.84-2.34h58.83c18.49,0,32.25,5.02,40.9,14.92,8.7,9.95,11.38,23.87,7.98,41.36-1.38,7.12-3.76,13.74-7.07,19.67-3.31,5.93-7.69,11.42-13.02,16.31-6.37,5.97-13.59,10.29-21.43,12.84-7.71,2.51-17.61,3.79-29.43,3.79h-23.82l-6.8,35c-.26,1.36-1.45,2.34-2.84,2.34h-30.59Z" stroke="#777bb3" stroke-miterlimit="10" stroke-width="5"/><path id="path3494" d="M278.72,300.03c-.86,0-1.68-.39-2.23-1.05-.55-.67-.77-1.54-.61-2.39l12.07-62.14c1.15-5.91.87-10.15-.8-11.94-1.02-1.1-4.07-2.93-13.11-2.93h-21.87l-15.18,78.12c-.26,1.36-1.45,2.34-2.84,2.34h-30.35c-.86,0-1.68-.39-2.23-1.05-.55-.67-.77-1.54-.61-2.39l27.3-140.44c.26-1.36,1.45-2.34,2.84-2.34h30.35c.86,0,1.68.39,2.23,1.05.55.67.77,1.54.61,2.39l-6.59,33.9h23.53c17.93,0,30.08,3.16,37.16,9.66,7.22,6.63,9.47,17.24,6.69,31.53l-12.7,65.35c-.26,1.36-1.45,2.34-2.84,2.34h-30.83Z" stroke="#777bb3" stroke-miterlimit="10" stroke-width="5"/><path id="path3502" d="M373.12,272.09c11.63,0,20.3-2.14,25.8-6.37,5.43-4.18,9.18-11.43,11.15-21.54,1.83-9.45,1.14-16.05-2.08-19.61-3.28-3.64-10.38-5.48-21.1-5.48h-18.58l-10.3,53h15.1ZM312.36,337.37c-.86,0-1.68-.39-2.23-1.05-.55-.67-.77-1.54-.61-2.39l27.3-140.44c.26-1.36,1.45-2.34,2.84-2.34h58.83c18.49,0,32.25,5.02,40.9,14.92,8.7,9.95,11.38,23.87,7.98,41.36-1.39,7.12-3.76,13.74-7.07,19.67-3.31,5.93-7.69,11.42-13.02,16.31-6.37,5.97-13.59,10.29-21.43,12.84-7.71,2.51-17.61,3.79-29.43,3.79h-23.82l-6.8,35c-.26,1.36-1.45,2.34-2.84,2.34h-30.59Z" stroke="#777bb3" stroke-miterlimit="10" stroke-width="5"/></svg>