<?xml version="1.0" encoding="UTF-8"?>
<svg id="a" data-name="Camada 1" xmlns="http://www.w3.org/2000/svg" viewBox="0 0 512 512">
  <rect width="512" height="512" rx="64" ry="64" fill="#1e1c57"/>
  <g>
    <path d="M257.9,138.21c-19.15-12.57-46.6-18.86-82.35-18.86-9.92,0-21.45.47-34.6,1.38-13.15.92-25.6,2.54-37.37,4.84v236.32h53.98v-80.27h16.95c35.98,0,63.67-6.4,83.04-19.2,19.38-12.8,29.06-33.62,29.06-62.45s-9.58-49.19-28.72-61.76ZM216.73,228c-9.46,5.08-23.53,7.61-42.21,7.61h-16.95v-69.2c2.77-.23,6.05-.46,9.86-.69,3.81-.23,7.67-.35,11.59-.35,7.84,0,14.99.52,21.45,1.56,6.46,1.04,11.94,2.89,16.44,5.54,4.5,2.65,7.96,6.17,10.38,10.55,2.42,4.38,3.63,9.92,3.63,16.61,0,13.84-4.73,23.3-14.19,28.37Z" fill="#9392c7"/>
    <path d="M422.6,180.07c-3.92-.81-7.84-1.5-11.76-2.08-3.93-.57-7.84-1.04-11.76-1.38-3.92-.35-7.27-.52-10.03-.52-15.46,0-29.47,1.44-42.04,4.32-12.58,2.89-23.47,5.94-32.7,9.17v172.31h51.55v-139.09c2.3-.69,5.71-1.32,10.21-1.9,4.5-.57,8.36-.86,11.59-.86,7.15,0,13.84.64,20.07,1.9,6.23,1.27,11.64,2.48,16.26,3.63l8.65-42.56c-2.77-1.15-6.12-2.13-10.04-2.94Z" fill="#9392c7"/>
  </g>
</svg>