<?xml version="1.0" encoding="UTF-8"?><svg id="Camada_1" xmlns="http://www.w3.org/2000/svg" viewBox="0 0 512 512"><rect width="512" height="512" rx="64" ry="64" fill="#061f34"/><path d="M247.01,138.21c-19.15-12.57-46.6-18.86-82.35-18.86-9.92,0-21.45.47-34.6,1.38-13.15.92-25.6,2.54-37.37,4.84v236.32h53.98v-80.27h16.95c35.98,0,63.67-6.4,83.04-19.2,19.38-12.8,29.06-33.62,29.06-62.45s-9.58-49.19-28.72-61.76ZM205.83,228c-9.46,5.08-23.53,7.61-42.21,7.61h-16.95v-69.2c2.77-.23,6.05-.46,9.86-.69,3.81-.23,7.67-.35,11.59-.35,7.84,0,14.99.52,21.45,1.56,6.46,1.04,11.94,2.89,16.44,5.54,4.5,2.65,7.96,6.17,10.38,10.55,2.42,4.38,3.63,9.92,3.63,16.61,0,13.84-4.73,23.3-14.19,28.37Z" fill="#388ccb"/><path d="M430.22,292.18c-1.73-5.75-4.73-10.99-9-15.71-4.27-4.71-10.09-9.11-17.47-13.18-7.38-4.07-16.73-8.2-28.03-12.39-5.54-2.09-10.09-4.01-13.67-5.75-3.58-1.74-6.4-3.36-8.48-4.87-2.08-1.5-3.46-3.05-4.15-4.67-.69-1.61-1.04-3.46-1.04-5.54,0-9,8.07-13.49,24.22-13.49,8.76,0,16.66.81,23.7,2.42,7.03,1.62,13.55,3.46,19.55,5.54l9-40.14c-6-2.3-14.07-4.44-24.22-6.4-10.15-1.96-20.76-2.94-31.83-2.94-22.14,0-39.56,4.96-52.25,14.88-12.69,9.92-19.03,23.42-19.03,40.48,0,8.77,1.26,16.26,3.81,22.49,2.54,6.23,6.11,11.59,10.73,16.09,4.61,4.5,10.21,8.36,16.78,11.59,6.57,3.23,13.89,6.35,21.97,9.34,10.38,3.92,18.11,7.44,23.18,10.55,5.07,3.11,7.61,6.75,7.61,10.9,0,5.31-1.96,8.88-5.88,10.73-3.92,1.85-10.61,2.77-20.07,2.77s-18.11-.98-27.33-2.94c-9.23-1.96-18.22-4.67-26.99-8.13l-8.65,41.87c4.15,1.85,11.59,4.15,22.32,6.92,10.73,2.77,24.16,4.15,40.31,4.15,24.68,0,43.77-4.61,57.26-13.81,13.49-9.21,20.24-22.79,20.24-40.74,0-7.59-.86-14.27-2.59-20.02Z" fill="#388ccb"/></svg>