<?xml version="1.0" encoding="UTF-8"?>
<svg id="a" data-name="Camada 1" xmlns="http://www.w3.org/2000/svg" viewBox="0 0 512 512">
  <rect width="512" height="512" rx="64" ry="64" fill="#243218"/>
  <g>
    <path d="M171.75,119.35c35.75,0,63.2,6.29,82.35,18.86,19.14,12.58,28.72,33.16,28.72,61.76s-9.69,49.65-29.06,62.45c-19.38,12.8-47.06,19.2-83.04,19.2h-16.96v80.27h-53.98V125.58c11.76-2.3,24.22-3.92,37.37-4.84,13.15-.92,24.68-1.38,34.6-1.38ZM175.21,165.37c-3.93,0-7.79.12-11.59.35-3.81.23-7.09.46-9.86.69v69.2h16.96c18.68,0,32.75-2.54,42.21-7.61,9.46-5.07,14.19-14.53,14.19-28.37,0-6.69-1.21-12.22-3.63-16.61-2.42-4.38-5.88-7.9-10.38-10.55-4.5-2.65-9.98-4.5-16.44-5.54-6.46-1.04-13.61-1.56-21.45-1.56Z" fill="#a0cc41"/>
    <path d="M308.77,134.57l51.55-8.3v53.63h61.94v42.91h-61.94v64.01c0,10.85,1.9,19.5,5.71,25.95,3.81,6.46,11.47,9.69,23.01,9.69,5.54,0,11.25-.52,17.13-1.56,5.88-1.04,11.25-2.48,16.09-4.33l7.27,40.14c-6.23,2.54-13.15,4.73-20.76,6.57s-16.95,2.77-28.03,2.77c-14.07,0-25.72-1.9-34.95-5.71-9.23-3.81-16.61-9.11-22.14-15.92-5.54-6.8-9.4-15.05-11.59-24.74-2.2-9.69-3.29-20.41-3.29-32.18v-152.94Z" fill="#a0cc41"/>
  </g>
</svg>