<?xml version="1.0" encoding="UTF-8"?><svg id="Camada_1" xmlns="http://www.w3.org/2000/svg" xmlns:xlink="http://www.w3.org/1999/xlink" viewBox="0 0 512 512"><defs><linearGradient id="Gradiente_sem_nome_11" x1="122.1" y1="512.36" x2="351.12" y2="742.15" gradientTransform="translate(-53.3 -445.57)" gradientUnits="userSpaceOnUse"><stop offset="0" stop-color="#387eb8"/><stop offset="1" stop-color="#366994"/></linearGradient><linearGradient id="Gradiente_sem_nome_2" x1="261.28" y1="659.17" x2="506.83" y2="894.41" gradientTransform="translate(-53.3 -445.57)" gradientUnits="userSpaceOnUse"><stop offset="0" stop-color="#ffe052"/><stop offset="1" stop-color="#ffc331"/></linearGradient></defs><path d="M255.22,25.63c-108.78,0-109.95,42.22-109.95,50.92v52.75h112.04v15.84H100.76c-33.29,0-75.13,20.24-75.13,109.95,0,82.4,32.64,114.27,65.58,114.27h39.14v-54.97c0-23,11.4-65.58,64.53-65.58h111.13c16.34,0,62.43-7.1,62.43-60.34v-101.44c0-13.21-2.25-61.39-113.22-61.39ZM193.44,61.1c11.15,0,20.16,9.01,20.16,20.16s-9.01,20.16-20.16,20.16-20.16-9.01-20.16-20.16,9.01-20.16,20.16-20.16Z" fill="url(#Gradiente_sem_nome_11)"/><path d="M256.78,486.37c108.73,0,110.08-43.02,110.08-50.92v-52.75h-112.18v-15.84h156.55c33.55,0,75.13-20.75,75.13-109.95,0-97.69-44.14-114.27-65.58-114.27h-39.14v54.97c0,23-11.02,65.58-64.53,65.58h-111.13c-16.3,0-62.43,7.94-62.43,60.34v101.44c0,21.91,13.39,61.39,113.22,61.39ZM318.57,450.9c-11.15,0-20.16-9.01-20.16-20.16s9.01-20.16,20.16-20.16,20.16,9.01,20.16,20.16-9.01,20.16-20.16,20.16Z" fill="url(#Gradiente_sem_nome_2)"/></svg>