<?xml version="1.0" encoding="UTF-8"?>
<svg id="a" data-name="Camada 1" xmlns="http://www.w3.org/2000/svg" viewBox="0 0 512 512">
  <polygon points="37.89 343.83 8.59 264.18 3.65 407.06 37.89 343.83" fill="#f24e4e" fill-rule="evenodd"/>
  <polygon points="24.6 475.47 37.89 343.83 3.65 407.06 24.6 475.47" fill="#a51111" fill-rule="evenodd"/>
  <polygon points="106.51 507.65 166.78 314.95 244.09 464.45 106.51 507.65" fill="#a51111" fill-rule="evenodd"/>
  <polygon points="244.09 464.45 359.18 376.49 480.23 482.08 244.09 464.45" fill="#b72323" fill-rule="evenodd"/>
  <polygon points="480.23 482.08 448.21 264.15 505.43 75.41 480.23 482.08" fill="#b72323" fill-rule="evenodd"/>
  <polygon points="496.1 168.17 310.75 179.83 448.21 264.15 496.1 168.17" fill="#a51111" fill-rule="evenodd"/>
  <polygon points="505.43 75.41 427.78 6.31 349.83 49.21 505.43 75.41" fill="#a51111" fill-rule="evenodd"/>
  <polygon points="37.89 343.83 106.51 507.65 166.32 314.26 37.89 343.83" fill="#f24e4e" fill-rule="evenodd"/>
  <polygon points="166.78 314.95 359.18 376.49 311.03 180.14 166.78 314.95" fill="#f24e4e" fill-rule="evenodd"/>
  <polygon points="310.75 179.83 349.83 49.21 496.1 168.17 310.75 179.83" fill="#f24e4e" fill-rule="evenodd"/>
  <path d="M349.83,49.21L427.17,6.41s-139.51-3.04-139.51-.74,62.18,43.53,62.18,43.53Z" fill="#f24e4e" fill-rule="evenodd"/>
  <polygon points="24.6 475.47 37.96 343.42 106.51 507.65 24.6 475.47" fill="#890a10" fill-rule="evenodd"/>
  <polygon points="244.09 464.45 166.78 314.95 359.18 376.49 244.09 464.45" fill="#890a10" fill-rule="evenodd"/>
  <polygon points="480.23 482.08 106.51 507.65 244.09 464.45 480.23 482.08" fill="#91101d" fill-rule="evenodd"/>
  <polygon points="480.23 482.08 359.18 376.49 448.21 264.15 480.23 482.08" fill="#91101d" fill-rule="evenodd"/>
  <polygon points="359.18 376.49 311.03 180.14 448.21 264.15 359.18 376.49" fill="#890a10" fill-rule="evenodd"/>
  <polygon points="495.41 167.84 351.51 49.95 505.43 75.41 495.41 167.84" fill="#890a10" fill-rule="evenodd"/>
  <ellipse cx="175.55" cy="174.04" rx="199.45" ry="89.57" transform="translate(-71.65 175.1) rotate(-45)" fill="#a51111"/>
</svg>