<?xml version="1.0" encoding="UTF-8"?><svg id="Camada_1" xmlns="http://www.w3.org/2000/svg" xmlns:xlink="http://www.w3.org/1999/xlink" viewBox="0 0 512 512"><defs><linearGradient id="Gradiente_sem_nome_86" x1="447.07" y1="-2599.42" x2="340.6" y2="-2411.44" gradientTransform="translate(0 -2046) scale(1 -1)" gradientUnits="userSpaceOnUse"><stop offset="0" stop-color="#fb7655"/><stop offset="0" stop-color="#fb7655"/><stop offset=".41" stop-color="#e42b1e"/><stop offset=".99" stop-color="#900"/><stop offset="1" stop-color="#900"/></linearGradient><linearGradient id="Gradiente_sem_nome_3" x1="500.11" y1="-2441.51" x2="362.89" y2="-2349.43" gradientTransform="translate(0 -2046) scale(1 -1)" gradientUnits="userSpaceOnUse"><stop offset="0" stop-color="#871101"/><stop offset="0" stop-color="#871101"/><stop offset=".99" stop-color="#911209"/><stop offset="1" stop-color="#911209"/></linearGradient><linearGradient id="Gradiente_sem_nome_3-2" x1="390.32" y1="-2605.12" x2="253.11" y2="-2513.04" xlink:href="#Gradiente_sem_nome_3"/><linearGradient id="Gradiente_sem_nome_4" x1="102.22" y1="-2374.86" x2="123.49" y2="-2513.1" gradientTransform="translate(0 -2046) scale(1 -1)" gradientUnits="userSpaceOnUse"><stop offset="0" stop-color="#fff"/><stop offset="0" stop-color="#fff"/><stop offset=".23" stop-color="#e57252"/><stop offset=".46" stop-color="#de3b20"/><stop offset=".99" stop-color="#a60003"/><stop offset="1" stop-color="#a60003"/></linearGradient><linearGradient id="Gradiente_sem_nome_5" x1="248.53" y1="-2245.77" x2="256.37" y2="-2386.86" gradientTransform="translate(0 -2046) scale(1 -1)" gradientUnits="userSpaceOnUse"><stop offset="0" stop-color="#fff"/><stop offset="0" stop-color="#fff"/><stop offset=".23" stop-color="#e4714e"/><stop offset=".56" stop-color="#be1a0d"/><stop offset=".99" stop-color="#a80d00"/><stop offset="1" stop-color="#a80d00"/></linearGradient><linearGradient id="Gradiente_sem_nome_6" x1="378.37" y1="-2115.36" x2="401.83" y2="-2216.48" gradientTransform="translate(0 -2046) scale(1 -1)" gradientUnits="userSpaceOnUse"><stop offset="0" stop-color="#fff"/><stop offset="0" stop-color="#fff"/><stop offset=".18" stop-color="#e46342"/><stop offset=".4" stop-color="#c82410"/><stop offset=".99" stop-color="#a80d00"/><stop offset="1" stop-color="#a80d00"/></linearGradient><linearGradient id="Gradiente_sem_nome_7" x1="306.72" y1="-2079.75" x2="407.83" y2="-2029.2" gradientTransform="translate(0 -2046) scale(1 -1)" gradientUnits="userSpaceOnUse"><stop offset="0" stop-color="#fff"/><stop offset="0" stop-color="#fff"/><stop offset=".54" stop-color="#c81f11"/><stop offset=".99" stop-color="#bf0905"/><stop offset="1" stop-color="#bf0905"/></linearGradient><linearGradient id="Gradiente_sem_nome_8" x1="13.59" y1="-2339.61" x2="21.91" y2="-2422.93" gradientTransform="translate(0 -2046) scale(1 -1)" gradientUnits="userSpaceOnUse"><stop offset="0" stop-color="#fff"/><stop offset="0" stop-color="#fff"/><stop offset=".31" stop-color="#de4024"/><stop offset=".99" stop-color="#bf190b"/><stop offset="1" stop-color="#bf190b"/></linearGradient><linearGradient id="Gradiente_sem_nome_9" x1="-43.62" y1="-2445.45" x2="347.58" y2="-2043.19" gradientTransform="translate(0 -2046) scale(1 -1)" gradientUnits="userSpaceOnUse"><stop offset="0" stop-color="#bd0012"/><stop offset="0" stop-color="#bd0012"/><stop offset=".07" stop-color="#fff"/><stop offset=".17" stop-color="#fff"/><stop offset=".27" stop-color="#c82f1c"/><stop offset=".33" stop-color="#820c01"/><stop offset=".46" stop-color="#a31601"/><stop offset=".72" stop-color="#b31301"/><stop offset=".99" stop-color="#e82609"/><stop offset="1" stop-color="#e82609"/></linearGradient><linearGradient id="Gradiente_sem_nome_85" x1="256.03" y1="-2486.02" x2="138.19" y2="-2456.94" gradientTransform="translate(0 -2046) scale(1 -1)" gradientUnits="userSpaceOnUse"><stop offset="0" stop-color="#8c0c01"/><stop offset="0" stop-color="#8c0c01"/><stop offset=".54" stop-color="#990c00"/><stop offset=".99" stop-color="#a80d0e"/><stop offset="1" stop-color="#a80d0e"/></linearGradient><linearGradient id="Gradiente_sem_nome_84" x1="458.41" y1="-2344.6" x2="353.74" y2="-2250.78" gradientTransform="translate(0 -2046) scale(1 -1)" gradientUnits="userSpaceOnUse"><stop offset="0" stop-color="#7e110b"/><stop offset="0" stop-color="#7e110b"/><stop offset=".99" stop-color="#9e0c00"/><stop offset="1" stop-color="#9e0c00"/></linearGradient><linearGradient id="Gradiente_sem_nome_12" x1="496.87" y1="-2172.46" x2="444.73" y2="-2116.72" gradientTransform="translate(0 -2046) scale(1 -1)" gradientUnits="userSpaceOnUse"><stop offset="0" stop-color="#79130d"/><stop offset="0" stop-color="#79130d"/><stop offset=".99" stop-color="#9e120b"/><stop offset="1" stop-color="#9e120b"/></linearGradient><radialGradient id="Gradiente_sem_nome_13" cx="370.03" cy="-2252.58" fx="370.03" fy="-2252.58" r="128.28" gradientTransform="translate(0 -2046) scale(1 -1)" gradientUnits="userSpaceOnUse"><stop offset="0" stop-color="#a80d00"/><stop offset="0" stop-color="#a80d00"/><stop offset=".99" stop-color="#7e0e08"/><stop offset="1" stop-color="#7e0e08"/></radialGradient><radialGradient id="Gradiente_sem_nome_14" cx="192.39" cy="-2421.63" fx="192.39" fy="-2421.63" r="170.53" gradientTransform="translate(0 -2046) scale(1 -1)" gradientUnits="userSpaceOnUse"><stop offset="0" stop-color="#a30c00"/><stop offset="0" stop-color="#a30c00"/><stop offset=".99" stop-color="#800e08"/><stop offset="1" stop-color="#800e08"/></radialGradient><linearGradient id="Gradiente_sem_nome_15" x1="71.59" y1="-2553.03" x2="29.09" y2="-2408.87" gradientTransform="translate(0 -2046) scale(1 -1)" gradientUnits="userSpaceOnUse"><stop offset="0" stop-color="#8b2114"/><stop offset="0" stop-color="#8b2114"/><stop offset=".43" stop-color="#9e100a"/><stop offset=".99" stop-color="#b3100c"/><stop offset="1" stop-color="#b3100c"/></linearGradient><linearGradient id="Gradiente_sem_nome_16" x1="397.57" y1="-2075.31" x2="492.84" y2="-2117.36" gradientTransform="translate(0 -2046) scale(1 -1)" gradientUnits="userSpaceOnUse"><stop offset="0" stop-color="#b31000"/><stop offset="0" stop-color="#b31000"/><stop offset=".44" stop-color="#910f08"/><stop offset=".99" stop-color="#791c12"/><stop offset="1" stop-color="#791c12"/></linearGradient></defs><polygon id="polygon3282" points="394.66 336.55 106.51 507.65 479.61 482.33 508.35 106.12 394.66 336.55" fill="url(#Gradiente_sem_nome_86)" fill-rule="evenodd"/><polygon id="polygon3293" points="480.23 482.08 448.16 260.74 360.81 376.08 480.23 482.08" fill="url(#Gradiente_sem_nome_3)" fill-rule="evenodd"/><polygon id="polygon3304" points="480.66 482.08 245.72 463.63 107.76 507.17 480.66 482.08" fill="url(#Gradiente_sem_nome_3-2)" fill-rule="evenodd"/><polygon id="polygon3319" points="108.09 507.22 166.78 314.95 37.63 342.56 108.09 507.22" fill="url(#Gradiente_sem_nome_4)" fill-rule="evenodd"/><polygon id="polygon3334" points="360.78 376.72 306.78 165.19 152.23 310.05 360.78 376.72" fill="url(#Gradiente_sem_nome_5)" fill-rule="evenodd"/><polygon id="polygon3349" points="496.1 168.17 350.01 48.85 309.33 180.37 496.1 168.17" fill="url(#Gradiente_sem_nome_6)" fill-rule="evenodd"/><polygon id="polygon3362" points="427.78 6.31 341.86 53.79 287.65 5.67 427.78 6.31" fill="url(#Gradiente_sem_nome_7)" fill-rule="evenodd"/><polygon id="polygon3375" points="3.65 407.06 39.64 341.41 10.53 263.21 3.65 407.06" fill="url(#Gradiente_sem_nome_8)" fill-rule="evenodd"/><path id="path3377" d="M8.59,260.74l29.29,83.09,127.29-28.56,145.33-135.06,41.01-130.27L286.93,4.35l-109.79,41.09c-34.59,32.17-101.71,95.83-104.13,97.03-2.39,1.22-44.32,80.47-64.42,118.27Z" fill="#fff" fill-rule="evenodd"/><path id="path3400" d="M111.45,111.46C186.42,37.13,283.07-6.78,320.15,30.64c37.07,37.42-2.24,128.36-77.21,202.67-74.97,74.31-170.42,120.64-207.48,83.22-37.09-37.39,1.02-130.75,75.99-205.06Z" fill="url(#Gradiente_sem_nome_9)" fill-rule="evenodd"/><path id="path3413" d="M108.09,507.14l58.23-192.88,193.39,62.13c-69.92,65.57-147.69,121-251.63,130.75Z" fill="url(#Gradiente_sem_nome_85)" fill-rule="evenodd"/><path id="path3424" d="M310.75,179.83l49.65,196.65c58.41-61.42,110.83-127.44,136.51-209.11,0,0-186.16,12.46-186.16,12.46Z" fill="url(#Gradiente_sem_nome_84)" fill-rule="evenodd"/><path id="path3435" d="M496.4,168.37c19.87-59.96,24.45-145.99-69.24-161.96l-76.88,42.46,146.12,119.5Z" fill="url(#Gradiente_sem_nome_12)" fill-rule="evenodd"/><path id="path3437" d="M3.65,406.19c2.75,98.97,74.15,100.44,104.57,101.31l-70.26-164.08L3.65,406.19Z" fill="#9e1209" fill-rule="evenodd"/><path id="path3448" d="M311.03,180.14c44.88,27.59,135.34,82.99,137.18,84.01,2.85,1.6,39-60.96,47.2-96.31,0,0-184.38,12.3-184.38,12.3Z" fill="url(#Gradiente_sem_nome_13)" fill-rule="evenodd"/><path id="path3459" d="M166.24,314.26l77.85,150.19c46.03-24.96,82.07-55.38,115.09-87.96l-192.93-62.23Z" fill="url(#Gradiente_sem_nome_14)" fill-rule="evenodd"/><path id="path3472" d="M37.66,343.63l-11.03,131.34c20.81,28.43,49.44,30.9,79.48,28.68-21.73-54.08-65.14-162.21-68.45-160.02Z" fill="url(#Gradiente_sem_nome_15)" fill-rule="evenodd"/><path id="path3485" d="M349.83,49.21l154.65,21.7c-8.25-34.97-33.6-57.54-76.8-64.6l-77.85,42.9Z" fill="url(#Gradiente_sem_nome_16)" fill-rule="evenodd"/></svg>