<?xml version="1.0" encoding="UTF-8"?>
<svg id="a" data-name="Camada 1" xmlns="http://www.w3.org/2000/svg" viewBox="0 0 512 512">
  <rect width="512" height="512" rx="64" ry="64" fill="#243218"/>
  <g>
    <path d="M154.97,320.73c7.61,0,13.89-.63,18.86-1.9,4.96-1.26,8.94-3,11.94-5.19,3-2.19,5.07-4.79,6.23-7.79,1.15-3,1.73-6.34,1.73-10.03,0-7.84-3.69-14.36-11.07-19.55-7.38-5.19-20.07-10.78-38.06-16.78-7.84-2.77-15.69-5.94-23.53-9.52-7.84-3.57-14.88-8.07-21.11-13.49-6.23-5.42-11.31-11.99-15.22-19.72-3.92-7.73-5.88-17.13-5.88-28.2s2.08-21.05,6.23-29.93c4.15-8.88,10.03-16.44,17.65-22.66s16.83-11.01,27.68-14.36c10.84-3.34,23.06-5.02,36.68-5.02,16.14,0,30.1,1.73,41.87,5.19,11.76,3.46,21.45,7.27,29.06,11.42l-15.57,42.56c-6.69-3.46-14.13-6.51-22.32-9.17-8.19-2.65-18.05-3.98-29.58-3.98-12.92,0-22.2,1.79-27.85,5.36-5.66,3.58-8.48,9.06-8.48,16.44,0,4.38,1.04,8.08,3.11,11.07,2.08,3,5.02,5.71,8.82,8.13,3.81,2.42,8.19,4.62,13.15,6.57,4.96,1.96,10.43,3.98,16.44,6.06,12.46,4.62,23.3,9.17,32.52,13.67,9.22,4.5,16.89,9.75,23.01,15.74,6.11,6,10.67,13.03,13.67,21.11,3,8.08,4.5,17.88,4.5,29.41,0,22.38-7.84,39.74-23.53,52.07-15.69,12.34-39.33,18.51-70.93,18.51-10.61,0-20.19-.64-28.72-1.9-8.54-1.27-16.09-2.83-22.66-4.67-6.57-1.84-12.23-3.81-16.95-5.88-4.73-2.08-8.71-4.03-11.94-5.88l15.22-42.91c7.15,3.92,15.97,7.44,26.47,10.55,10.49,3.11,23.36,4.67,38.58,4.67Z" fill="#a0cc41"/>
    <path d="M348.38,175.06c15.22,0,27.91,1.73,38.06,5.19,10.15,3.46,18.28,8.42,24.39,14.88,6.11,6.46,10.43,14.31,12.98,23.53,2.54,9.23,3.81,19.5,3.81,30.79v107.26c-7.38,1.62-17.65,3.52-30.79,5.71-13.15,2.19-29.06,3.29-47.75,3.29-11.76,0-22.44-1.04-32.01-3.11-9.57-2.08-17.82-5.48-24.74-10.21-6.92-4.72-12.23-10.9-15.92-18.51-3.69-7.61-5.54-16.95-5.54-28.03s2.13-19.6,6.4-26.99c4.27-7.38,9.98-13.26,17.13-17.65,7.15-4.38,15.34-7.55,24.57-9.51,9.22-1.96,18.8-2.94,28.72-2.94,6.69,0,12.63.29,17.82.87,5.19.58,9.4,1.33,12.63,2.25v-4.84c0-8.76-2.65-15.8-7.96-21.11-5.31-5.3-14.53-7.96-27.68-7.96-8.77,0-17.42.64-25.95,1.9-8.54,1.27-15.92,3.06-22.14,5.36l-6.57-41.52c3-.92,6.75-1.9,11.25-2.94s9.4-1.96,14.71-2.77c5.3-.81,10.9-1.5,16.78-2.08,5.88-.57,11.82-.86,17.82-.86ZM352.53,325.92c5.07,0,9.92-.11,14.53-.35,4.61-.23,8.3-.57,11.07-1.04v-39.1c-2.08-.46-5.19-.92-9.34-1.38-4.15-.46-7.96-.69-11.42-.69-4.84,0-9.4.29-13.67.87-4.27.58-8.02,1.68-11.25,3.29-3.23,1.62-5.77,3.81-7.61,6.57-1.85,2.77-2.77,6.23-2.77,10.38,0,8.08,2.71,13.67,8.13,16.78,5.42,3.11,12.86,4.67,22.32,4.67Z" fill="#a0cc41"/>
  </g>
</svg>