<?xml version="1.0" encoding="UTF-8"?>
<svg id="a" data-name="Camada 1" xmlns="http://www.w3.org/2000/svg" viewBox="0 0 512 512">
  <rect width="512" height="512" rx="64" ry="64" fill="#243218"/>
  <g>
    <path d="M149.95,320.73c7.61,0,13.89-.63,18.86-1.9,4.96-1.26,8.94-3,11.94-5.19,3-2.19,5.07-4.79,6.23-7.79,1.15-3,1.73-6.34,1.73-10.03,0-7.84-3.69-14.36-11.07-19.55-7.38-5.19-20.07-10.78-38.06-16.78-7.84-2.77-15.69-5.94-23.53-9.52-7.84-3.57-14.88-8.07-21.11-13.49-6.23-5.42-11.3-11.99-15.22-19.72-3.92-7.73-5.88-17.13-5.88-28.2s2.08-21.05,6.23-29.93c4.15-8.88,10.03-16.44,17.65-22.66,7.61-6.23,16.83-11.01,27.68-14.36,10.84-3.34,23.06-5.02,36.68-5.02,16.14,0,30.1,1.73,41.87,5.19,11.76,3.46,21.45,7.27,29.06,11.42l-15.57,42.56c-6.69-3.46-14.13-6.51-22.32-9.17-8.19-2.65-18.05-3.98-29.58-3.98-12.92,0-22.2,1.79-27.85,5.36-5.65,3.58-8.48,9.06-8.48,16.44,0,4.38,1.04,8.08,3.11,11.07,2.08,3,5.02,5.71,8.82,8.13,3.81,2.42,8.18,4.62,13.15,6.57,4.96,1.96,10.43,3.98,16.44,6.06,12.46,4.62,23.3,9.17,32.53,13.67,9.22,4.5,16.89,9.75,23.01,15.74,6.11,6,10.67,13.04,13.67,21.11,3,8.08,4.5,17.88,4.5,29.41,0,22.38-7.84,39.74-23.53,52.07-15.69,12.34-39.33,18.51-70.93,18.51-10.61,0-20.19-.64-28.72-1.9-8.54-1.27-16.09-2.83-22.66-4.67-6.57-1.84-12.23-3.81-16.95-5.88-4.73-2.08-8.71-4.03-11.94-5.88l15.22-42.91c7.15,3.92,15.97,7.44,26.47,10.55,10.49,3.11,23.36,4.67,38.58,4.67Z" fill="#a0cc41"/>
    <path d="M430.91,339.06c0,29.76-7.56,51.84-22.66,66.26-15.11,14.41-38.47,21.63-70.07,21.63-11.07,0-22.14-.98-33.22-2.94-11.07-1.96-21.34-4.56-30.79-7.79l9-43.25c8.07,3.23,16.55,5.76,25.43,7.61,8.88,1.84,18.97,2.77,30.28,2.77,14.76,0,25.2-3.23,31.31-9.69,6.11-6.46,9.17-14.76,9.17-24.91v-6.57c-5.54,2.54-11.25,4.44-17.13,5.71-5.88,1.27-12.28,1.9-19.2,1.9-25.14,0-44.41-7.44-57.78-22.32-13.38-14.88-20.07-35.69-20.07-62.45,0-13.38,2.08-25.55,6.23-36.5,4.15-10.95,10.21-20.35,18.17-28.2,7.96-7.84,17.7-13.89,29.24-18.17,11.53-4.27,24.57-6.4,39.1-6.4,6.23,0,12.63.29,19.2.86,6.57.58,13.09,1.33,19.55,2.25,6.46.92,12.63,2.02,18.51,3.29,5.88,1.27,11.12,2.6,15.74,3.98v152.94ZM317.76,265.02c0,28.84,11.64,43.25,34.95,43.25,5.3,0,10.26-.69,14.88-2.08,4.61-1.38,8.53-3,11.76-4.84v-82.35c-2.54-.46-5.54-.87-9-1.21-3.46-.35-7.5-.52-12.11-.52-13.61,0-23.76,4.5-30.45,13.49-6.69,9-10.03,20.41-10.03,34.26Z" fill="#a0cc41"/>
  </g>
</svg>