<?xml version="1.0" encoding="UTF-8"?><svg xmlns="http://www.w3.org/2000/svg" xmlns:xlink="http://www.w3.org/1999/xlink" viewBox="0 0 512 512"><defs><mask id="mask" x="24.29" y="25.62" width="463.42" height="460.75" maskUnits="userSpaceOnUse"><g id="mask0"><path d="M352.99,484.41c7.29,2.84,15.61,2.66,22.97-.88l95.35-45.88c10.02-4.82,16.39-14.96,16.39-26.09V100.45c0-11.12-6.37-21.26-16.39-26.09l-95.35-45.88c-9.66-4.65-20.97-3.51-29.45,2.65-1.21.88-2.37,1.86-3.45,2.95l-182.54,166.54-79.51-60.36c-7.4-5.62-17.75-5.16-24.63,1.1l-25.5,23.2c-8.41,7.65-8.42,20.88-.02,28.54l68.95,62.91-68.95,62.91c-8.4,7.66-8.39,20.89.02,28.54l25.5,23.2c6.87,6.25,17.23,6.71,24.63,1.09l79.51-60.36,182.54,166.54c2.89,2.89,6.28,5.07,9.92,6.49ZM372,150.86l-138.51,105.14,138.51,105.14v-210.28Z" fill="#fff" fill-rule="evenodd"/></g></mask><linearGradient id="Gradiente_sem_nome_10" x1="255.86" y1="3048.38" x2="255.86" y2="2587.62" gradientTransform="translate(0 3074) scale(1 -1)" gradientUnits="userSpaceOnUse"><stop offset="0" stop-color="#fff"/><stop offset="1" stop-color="#fff" stop-opacity="0"/></linearGradient></defs><g isolation="isolate"><g id="Camada_1"><g mask="url(#mask)"><path d="M471.32,74.43l-95.43-45.95c-11.05-5.32-24.25-3.07-32.91,5.59L30.59,318.91c-8.4,7.66-8.39,20.89.02,28.54l25.52,23.2c6.88,6.25,17.24,6.71,24.64,1.1L456.96,86.35c12.62-9.57,30.75-.57,30.75,15.27v-1.11c0-11.12-6.37-21.26-16.39-26.08Z" fill="#0065a9"/><path d="M471.32,437.57l-95.43,45.95c-11.05,5.32-24.25,3.07-32.91-5.59L30.59,193.09c-8.4-7.66-8.39-20.89.02-28.54l25.52-23.2c6.88-6.25,17.24-6.71,24.64-1.1l376.19,285.39c12.62,9.57,30.75.57,30.75-15.27v1.11c0,11.12-6.37,21.26-16.39,26.08Z" fill="#007acc"/><path d="M375.9,483.52c-11.05,5.32-24.25,3.07-32.92-5.6,10.68,10.68,28.95,3.12,28.95-11.99V46.07c0-15.11-18.26-22.67-28.95-11.99,8.67-8.67,21.87-10.92,32.92-5.6l95.41,45.88c10.03,4.82,16.4,14.96,16.4,26.09v311.11c0,11.12-6.38,21.26-16.4,26.09l-95.41,45.88Z" fill="#1f9cf0"/><g mix-blend-mode="overlay" opacity=".25"><path d="M352.71,484.41c7.29,2.84,15.61,2.66,22.97-.88l95.35-45.88c10.02-4.82,16.39-14.96,16.39-26.09V100.45c0-11.13-6.37-21.27-16.39-26.09l-95.35-45.88c-9.66-4.65-20.97-3.51-29.45,2.65-1.21.88-2.37,1.86-3.45,2.95l-182.54,166.54-79.51-60.36c-7.4-5.62-17.75-5.16-24.63,1.09l-25.5,23.2c-8.41,7.65-8.42,20.88-.02,28.54l68.95,62.91-68.95,62.91c-8.4,7.66-8.39,20.89.02,28.54l25.5,23.2c6.87,6.25,17.23,6.71,24.63,1.1l79.51-60.36,182.54,166.54c2.89,2.89,6.28,5.07,9.92,6.49ZM371.71,150.86l-138.51,105.14,138.51,105.14v-210.28Z" fill="url(#Gradiente_sem_nome_10)" fill-rule="evenodd"/></g></g></g></g></svg>