<?xml version="1.0" encoding="UTF-8"?>
<svg id="a" data-name="Camada 1" xmlns="http://www.w3.org/2000/svg" viewBox="0 0 512 512">
  <rect width="512" height="512" rx="64" ry="64" fill="#460436"/>
  <g>
    <path d="M209.77,364.21c-6.75-13.35-14.14-26.88-22.17-40.58-8.03-13.7-17.25-25.29-27.65-34.75-3.23,3.57-7.31,8.53-12.27,14.87-4.95,6.35-9.9,13.09-14.85,20.23-4.95,7.14-9.59,14.54-13.91,22.19-4.31,7.66-7.53,13.67-9.63,18.03h-61.59c10.09-18.72,22-38.06,35.74-57.99,13.73-19.94,29.05-41.1,45.96-63.51L51.17,124.43h65.4l45.69,69.43,46.69-69.43h61.59l-77.82,115.73c20.4,25.57,37.21,49,50.4,70.31,13.19,21.31,23.6,39.22,31.23,53.75h-64.57Z" fill="#c66dab"/>
    <path d="M443.54,358.33c-4.62,1.38-9.92,2.71-15.92,3.98-6,1.27-12.28,2.36-18.86,3.29-6.57.92-13.27,1.67-20.07,2.25-6.81.57-13.32.87-19.55.87-15,0-28.37-2.2-40.14-6.57s-21.68-10.67-29.76-18.86c-8.08-8.19-14.25-18.11-18.51-29.76-4.27-11.64-6.4-24.74-6.4-39.27s1.84-28.08,5.54-39.96c3.69-11.88,9-21.97,15.92-30.28,6.92-8.3,15.4-14.65,25.43-19.03,10.03-4.38,21.51-6.57,34.43-6.57,7.15,0,13.55.69,19.2,2.08,5.65,1.38,11.36,3.35,17.13,5.88v-82.35l51.55-8.3v262.62ZM326.93,271.83c0,15.92,3.57,28.72,10.73,38.41,7.15,9.69,17.76,14.53,31.83,14.53,4.61,0,8.88-.17,12.8-.52,3.92-.35,7.15-.75,9.69-1.21v-93.77c-3.23-2.08-7.44-3.81-12.63-5.19-5.19-1.38-10.44-2.08-15.74-2.08-24.45,0-36.68,16.61-36.68,49.83Z" fill="#c66dab"/>
  </g>
</svg>